<svg xmlns="http://www.w3.org/2000/svg" xmlns:xlink="http://www.w3.org/1999/xlink" width="604" zoomAndPan="magnify" viewBox="0 0 452.88 262.499992" height="350" preserveAspectRatio="xMidYMid meet" version="1.0"><defs><clipPath id="28c2a42faf"><path d="M 0.371094 0 L 452.390625 0 L 452.390625 262 L 0.371094 262 Z M 0.371094 0 " clip-rule="nonzero"/></clipPath><clipPath id="a0262b8f19"><path d="M 164 148 L 287 148 L 287 235.511719 L 164 235.511719 Z M 164 148 " clip-rule="nonzero"/></clipPath><clipPath id="02b7e63c4b"><path d="M 164 26.660156 L 289 26.660156 L 289 177 L 164 177 Z M 164 26.660156 " clip-rule="nonzero"/></clipPath></defs><g clip-path="url(#28c2a42faf)"><path fill="#ffffff" d="M 0.371094 0 L 452.507812 0 L 452.507812 262 L 0.371094 262 Z M 0.371094 0 " fill-opacity="1" fill-rule="nonzero"/><path fill="#c4d7ff" d="M 0.371094 0 L 452.507812 0 L 452.507812 262 L 0.371094 262 Z M 0.371094 0 " fill-opacity="1" fill-rule="nonzero"/></g><path fill="#94e1e4" d="M 229.632812 44.269531 L 229.632812 113.886719 L 279.332031 132.960938 Z M 252.445312 104.59375 C 251.957031 104.917969 251.46875 104.917969 250.816406 104.917969 C 249.675781 104.917969 248.535156 104.265625 247.882812 103.289062 L 238.105469 85.355469 C 237.292969 83.722656 237.78125 81.769531 239.410156 80.953125 C 241.039062 80.136719 242.996094 80.625 243.808594 82.257812 L 253.585938 100.191406 C 254.5625 101.660156 253.914062 103.613281 252.445312 104.59375 Z M 257.335938 116.332031 C 255.542969 116.332031 254.074219 114.863281 254.074219 113.070312 C 254.074219 111.277344 255.542969 109.8125 257.335938 109.8125 C 259.125 109.8125 260.59375 111.277344 260.59375 113.070312 C 260.59375 114.863281 259.125 116.332031 257.335938 116.332031 Z M 257.335938 116.332031 " fill-opacity="1" fill-rule="nonzero"/><path fill="#94e1e4" d="M 223.117188 44.269531 L 223.117188 113.558594 L 173.578125 132.472656 Z M 223.117188 44.269531 " fill-opacity="1" fill-rule="nonzero"/><path fill="#94e1e4" d="M 223.117188 120.570312 L 223.117188 167.6875 L 175.699219 138.667969 Z M 223.117188 120.570312 " fill-opacity="1" fill-rule="nonzero"/><path fill="#94e1e4" d="M 276.726562 138.832031 L 229.632812 167.6875 L 229.632812 120.734375 Z M 276.726562 138.832031 " fill-opacity="1" fill-rule="nonzero"/><g clip-path="url(#a0262b8f19)"><path fill="#2d4356" d="M 286.339844 148.941406 C 285.851562 148.941406 285.035156 149.265625 283.894531 150.082031 L 228.980469 185.949219 C 228.167969 186.4375 227.1875 186.765625 226.210938 186.765625 C 225.234375 186.765625 224.257812 186.4375 223.441406 185.949219 L 167.875 150.082031 C 166.734375 149.429688 165.921875 149.101562 165.433594 149.101562 C 164.617188 149.101562 164.78125 150.082031 166.082031 152.039062 L 223.929688 234.371094 C 224.417969 235.1875 225.070312 235.511719 225.886719 235.511719 C 226.539062 235.511719 227.1875 235.1875 227.839844 234.371094 L 285.6875 152.039062 C 286.992188 150.082031 287.152344 148.941406 286.339844 148.941406 Z M 223.117188 221.65625 L 186.941406 170.136719 L 220.183594 191.492188 C 220.996094 192.144531 222.136719 192.472656 223.117188 192.796875 Z M 229.632812 220.351562 L 229.632812 192.796875 C 230.773438 192.472656 231.75 191.980469 232.730469 191.492188 L 264.503906 170.625 Z M 229.632812 220.351562 " fill-opacity="1" fill-rule="nonzero"/></g><path fill="#94e1e4" d="M 264.503906 170.625 L 229.632812 220.351562 L 229.632812 192.796875 C 230.773438 192.472656 231.75 191.980469 232.730469 191.492188 Z M 264.503906 170.625 " fill-opacity="1" fill-rule="nonzero"/><path fill="#94e1e4" d="M 223.117188 192.796875 L 223.117188 221.65625 L 186.941406 170.136719 L 220.183594 191.492188 C 221.160156 192.144531 222.136719 192.472656 223.117188 192.796875 Z M 223.117188 192.796875 " fill-opacity="1" fill-rule="nonzero"/><path fill="#2d4356" d="M 213.339844 80.789062 C 211.710938 79.976562 209.753906 80.464844 208.9375 82.09375 L 199.164062 100.027344 C 198.347656 101.660156 198.835938 103.613281 200.464844 104.429688 C 200.953125 104.757812 201.445312 104.757812 202.09375 104.757812 C 203.234375 104.757812 204.375 104.105469 205.027344 103.125 L 214.804688 85.191406 C 215.457031 83.722656 214.804688 81.769531 213.339844 80.789062 Z M 213.339844 80.789062 " fill-opacity="1" fill-rule="nonzero"/><path fill="#2d4356" d="M 198.671875 113.070312 C 198.671875 113.503906 198.589844 113.917969 198.425781 114.320312 C 198.261719 114.71875 198.023438 115.070312 197.71875 115.378906 C 197.414062 115.683594 197.0625 115.917969 196.660156 116.082031 C 196.261719 116.25 195.847656 116.332031 195.414062 116.332031 C 194.980469 116.332031 194.566406 116.25 194.167969 116.082031 C 193.769531 115.917969 193.414062 115.683594 193.109375 115.378906 C 192.804688 115.070312 192.570312 114.71875 192.402344 114.320312 C 192.238281 113.917969 192.15625 113.503906 192.15625 113.070312 C 192.15625 112.640625 192.238281 112.222656 192.402344 111.824219 C 192.570312 111.425781 192.804688 111.070312 193.109375 110.765625 C 193.414062 110.460938 193.769531 110.222656 194.167969 110.058594 C 194.566406 109.894531 194.980469 109.8125 195.414062 109.8125 C 195.847656 109.8125 196.261719 109.894531 196.660156 110.058594 C 197.0625 110.222656 197.414062 110.460938 197.71875 110.765625 C 198.023438 111.070312 198.261719 111.425781 198.425781 111.824219 C 198.589844 112.222656 198.671875 112.640625 198.671875 113.070312 Z M 198.671875 113.070312 " fill-opacity="1" fill-rule="nonzero"/><path fill="#2d4356" d="M 252.445312 104.59375 C 251.957031 104.917969 251.46875 104.917969 250.816406 104.917969 C 249.675781 104.917969 248.535156 104.265625 247.882812 103.289062 L 238.105469 85.355469 C 237.292969 83.722656 237.78125 81.769531 239.410156 80.953125 C 241.039062 80.136719 242.996094 80.625 243.808594 82.257812 L 253.585938 100.191406 C 254.5625 101.660156 253.914062 103.613281 252.445312 104.59375 Z M 252.445312 104.59375 " fill-opacity="1" fill-rule="nonzero"/><path fill="#2d4356" d="M 260.59375 113.070312 C 260.59375 113.503906 260.511719 113.917969 260.34375 114.320312 C 260.179688 114.71875 259.945312 115.070312 259.636719 115.378906 C 259.332031 115.683594 258.980469 115.917969 258.582031 116.082031 C 258.183594 116.25 257.765625 116.332031 257.335938 116.332031 C 256.902344 116.332031 256.484375 116.25 256.085938 116.082031 C 255.6875 115.917969 255.335938 115.683594 255.03125 115.378906 C 254.722656 115.070312 254.488281 114.71875 254.324219 114.320312 C 254.15625 113.917969 254.074219 113.503906 254.074219 113.070312 C 254.074219 112.640625 254.15625 112.222656 254.324219 111.824219 C 254.488281 111.425781 254.722656 111.070312 255.03125 110.765625 C 255.335938 110.460938 255.6875 110.222656 256.085938 110.058594 C 256.484375 109.894531 256.902344 109.8125 257.335938 109.8125 C 257.765625 109.8125 258.183594 109.894531 258.582031 110.058594 C 258.980469 110.222656 259.332031 110.460938 259.636719 110.765625 C 259.945312 111.070312 260.179688 111.425781 260.34375 111.824219 C 260.511719 112.222656 260.59375 112.640625 260.59375 113.070312 Z M 260.59375 113.070312 " fill-opacity="1" fill-rule="nonzero"/><path fill="#f5ffff" d="M 224.09375 38.890625 L 223.117188 54.050781 L 181.5625 130.679688 L 170.972656 135.082031 Z M 224.09375 38.890625 " fill-opacity="0.3" fill-rule="nonzero"/><path fill="#f5ffff" d="M 279.332031 132.960938 L 271.511719 131.167969 L 229.632812 54.050781 L 229.632812 44.269531 Z M 279.332031 132.960938 " fill-opacity="0.3" fill-rule="nonzero"/><path fill="#0f423c" d="M 223.117188 107.039062 L 223.117188 113.558594 L 173.578125 132.472656 L 178.304688 124.15625 Z M 223.117188 107.039062 " fill-opacity="0.3" fill-rule="nonzero"/><path fill="#0f423c" d="M 279.332031 132.960938 L 229.632812 113.886719 L 229.632812 107.363281 L 274.769531 124.648438 Z M 279.332031 132.960938 " fill-opacity="0.3" fill-rule="nonzero"/><path fill="#0f423c" d="M 271.183594 142.417969 L 270.207031 142.90625 L 229.632812 167.6875 L 229.632812 161.167969 L 263.6875 140.460938 Z M 271.183594 142.417969 " fill-opacity="0.3" fill-rule="nonzero"/><path fill="#d6f2f2" d="M 223.117188 120.570312 L 223.117188 127.09375 L 188.898438 140.296875 L 181.5625 142.253906 L 175.699219 138.667969 L 182.214844 136.222656 L 192.15625 132.472656 Z M 223.117188 120.570312 " fill-opacity="0.3" fill-rule="nonzero"/><path fill="#0f423c" d="M 223.117188 161.167969 L 223.117188 167.6875 L 181.5625 142.253906 L 188.898438 140.296875 Z M 223.117188 161.167969 " fill-opacity="0.3" fill-rule="nonzero"/><path fill="#0f423c" d="M 223.117188 215.132812 L 223.117188 221.65625 L 186.941406 170.136719 L 195.25 175.515625 Z M 223.117188 215.132812 " fill-opacity="0.3" fill-rule="nonzero"/><path fill="#0f423c" d="M 264.503906 170.625 L 229.632812 220.351562 L 229.632812 213.828125 L 256.03125 176.167969 Z M 264.503906 170.625 " fill-opacity="0.3" fill-rule="nonzero"/><path fill="#d6f2f2" d="M 276.726562 138.832031 L 270.53125 142.746094 L 263.6875 140.460938 L 229.632812 127.253906 L 229.632812 120.734375 L 273.140625 137.527344 Z M 276.726562 138.832031 " fill-opacity="0.3" fill-rule="nonzero"/><path fill="#f5ffff" d="M 264.503906 170.625 L 256.03125 182.6875 L 232.730469 198.015625 C 231.75 198.667969 230.773438 198.992188 229.632812 199.320312 L 229.632812 192.796875 C 230.773438 192.472656 231.75 191.980469 232.730469 191.492188 Z M 264.503906 170.625 " fill-opacity="0.3" fill-rule="nonzero"/><path fill="#f5ffff" d="M 223.117188 192.796875 L 223.117188 199.320312 C 222.136719 198.992188 220.996094 198.667969 220.183594 198.015625 L 195.25 182.035156 L 186.941406 170.136719 L 220.183594 191.492188 C 221.160156 192.144531 222.136719 192.472656 223.117188 192.796875 Z M 223.117188 192.796875 " fill-opacity="0.3" fill-rule="nonzero"/><g clip-path="url(#02b7e63c4b)"><path fill="#2d4356" d="M 288.292969 135.570312 L 228.003906 27.800781 C 227.515625 27.148438 226.863281 26.660156 226.375 26.660156 C 225.722656 26.660156 225.234375 27.148438 224.746094 27.800781 L 164.453125 135.570312 C 163.640625 137.199219 164.128906 139.15625 165.59375 140.136719 L 223.605469 175.679688 C 224.417969 176.167969 225.398438 176.332031 226.375 176.332031 C 227.351562 176.332031 228.328125 176.167969 229.144531 175.679688 L 287.152344 140.136719 C 288.621094 139.15625 289.273438 137.199219 288.292969 135.570312 Z M 223.117188 167.6875 L 175.699219 138.667969 L 223.117188 120.570312 Z M 223.117188 113.558594 L 173.578125 132.472656 L 223.117188 44.269531 Z M 229.632812 167.6875 L 229.632812 120.734375 L 276.726562 138.832031 Z M 229.632812 113.886719 L 229.632812 44.269531 L 279.332031 132.960938 Z M 229.632812 113.886719 " fill-opacity="1" fill-rule="nonzero"/></g></svg>