<svg xmlns="http://www.w3.org/2000/svg" xmlns:xlink="http://www.w3.org/1999/xlink" width="500" zoomAndPan="magnify" viewBox="0 0 375 374.999991" height="500" preserveAspectRatio="xMidYMid meet" version="1.0"><defs><g/></defs><rect x="-37.5" width="450" fill="#ffffff" y="-37.499999" height="449.999989" fill-opacity="1"/><rect x="-37.5" width="450" fill="#ffffff" y="-37.499999" height="449.999989" fill-opacity="1"/><rect x="-37.5" width="450" fill="#000000" y="-37.499999" height="449.999989" fill-opacity="1"/><g fill="#ffffff" fill-opacity="1"><g transform="translate(25.743908, 290.099182)"><g><path d="M 122.390625 -43.203125 L 53.859375 -43.203125 L 44.0625 0 L 4.3125 0 L 52.40625 -201.59375 L 123.828125 -201.59375 L 171.921875 0 L 132.1875 0 Z M 61.921875 -79.484375 L 114.046875 -79.484375 L 90.71875 -182.578125 L 85.53125 -182.578125 Z M 61.921875 -79.484375 "/></g></g></g><g fill="#ffffff" fill-opacity="1"><g transform="translate(205.316725, 170.435501)"><g><path d="M 29.40625 -30.140625 L 25.734375 -30.140625 L 1.109375 -85.765625 L 18.75 -85.765625 L 36.390625 -44.84375 L 38.59375 -44.84375 L 56.234375 -85.765625 L 73.890625 -85.765625 L 49.25 -30.140625 L 45.578125 -30.140625 L 45.578125 0 L 29.40625 0 Z M 29.40625 -30.140625 "/></g></g></g><g fill="#ffffff" fill-opacity="1"><g transform="translate(280.305315, 170.435501)"><g><path d="M 68.375 -85.765625 L 68.375 -29.65625 C 68.375 -19.851562 65.78125 -12.171875 60.59375 -6.609375 C 55.40625 -1.054688 47.707031 1.71875 37.5 1.71875 C 27.28125 1.71875 19.578125 -1.054688 14.390625 -6.609375 C 9.203125 -12.171875 6.609375 -19.851562 6.609375 -29.65625 L 6.609375 -85.765625 L 22.796875 -85.765625 L 22.796875 -29.65625 C 22.796875 -24.59375 23.976562 -20.628906 26.34375 -17.765625 C 28.707031 -14.910156 32.425781 -13.484375 37.5 -13.484375 C 42.5625 -13.484375 46.273438 -14.910156 48.640625 -17.765625 C 51.015625 -20.628906 52.203125 -24.59375 52.203125 -29.65625 L 52.203125 -85.765625 Z M 68.375 -85.765625 "/></g></g></g><g fill="#b8e962" fill-opacity="1"><g transform="translate(205.326539, 293.03315)"><g><path d="M 52.078125 -18.375 L 22.90625 -18.375 L 18.75 0 L 1.84375 0 L 22.296875 -85.765625 L 52.6875 -85.765625 L 73.15625 0 L 56.234375 0 Z M 26.34375 -33.8125 L 48.515625 -33.8125 L 38.59375 -77.6875 L 36.390625 -77.6875 Z M 26.34375 -33.8125 "/></g></g></g><g fill="#b8e962" fill-opacity="1"><g transform="translate(280.318887, 293.03315)"><g><path d="M 66.53125 0 L 50.359375 0 L 50.359375 -25.734375 C 50.359375 -27.691406 49.847656 -29.28125 48.828125 -30.5 C 47.804688 -31.726562 46.113281 -32.34375 43.75 -32.34375 L 25.125 -32.34375 L 25.125 0 L 8.9375 0 L 8.9375 -85.765625 L 41.78125 -85.765625 C 46.195312 -85.765625 50.078125 -85.148438 53.421875 -83.921875 C 56.773438 -82.703125 59.570312 -81.007812 61.8125 -78.84375 C 64.0625 -76.6875 65.773438 -74.175781 66.953125 -71.3125 C 68.140625 -68.457031 68.734375 -65.394531 68.734375 -62.125 L 68.734375 -59.1875 C 68.734375 -55.664062 67.796875 -52.375 65.921875 -49.3125 C 64.046875 -46.25 61.144531 -43.898438 57.21875 -42.265625 L 57.21875 -40.0625 C 60.082031 -39.738281 62.347656 -38.632812 64.015625 -36.75 C 65.691406 -34.875 66.53125 -32.507812 66.53125 -29.65625 Z M 25.125 -47.78125 L 40.5625 -47.78125 C 44.476562 -47.78125 47.457031 -48.695312 49.5 -50.53125 C 51.539062 -52.375 52.5625 -54.972656 52.5625 -58.328125 L 52.5625 -59.796875 C 52.5625 -62.648438 51.539062 -65.117188 49.5 -67.203125 C 47.457031 -69.285156 44.476562 -70.328125 40.5625 -70.328125 L 25.125 -70.328125 Z M 25.125 -47.78125 "/></g></g></g></svg>