<svg xmlns="http://www.w3.org/2000/svg" xmlns:xlink="http://www.w3.org/1999/xlink" width="1146" zoomAndPan="magnify" viewBox="0 0 859.5 482.999988" height="644" preserveAspectRatio="xMidYMid meet" version="1.0"><defs><g/><clipPath id="cb6b0de361"><path d="M 197 125.90625 L 635 125.90625 L 635 129.429688 L 197 129.429688 Z M 197 125.90625 " clip-rule="nonzero"/></clipPath><clipPath id="45c7fe51b0"><path d="M 476 88.179688 L 726.09375 88.179688 L 726.09375 120 L 476 120 Z M 476 88.179688 " clip-rule="nonzero"/></clipPath><clipPath id="7388dfb976"><path d="M 106 88.179688 L 356 88.179688 L 356 120 L 106 120 Z M 106 88.179688 " clip-rule="nonzero"/></clipPath><clipPath id="d18d5dba3c"><path d="M 211 359.074219 L 648.90625 359.074219 L 648.90625 362.597656 L 211 362.597656 Z M 211 359.074219 " clip-rule="nonzero"/></clipPath><clipPath id="c9725a4f7f"><path d="M 489 368 L 739.878906 368 L 739.878906 400.230469 L 489 400.230469 Z M 489 368 " clip-rule="nonzero"/></clipPath><clipPath id="ac1fe80fcb"><path d="M 119.628906 368 L 370 368 L 370 400.230469 L 119.628906 400.230469 Z M 119.628906 368 " clip-rule="nonzero"/></clipPath></defs><path fill="#ff1b1b" d="M 455.941406 113.710938 C 454.496094 113.710938 453.320312 112.539062 453.320312 111.097656 C 453.320312 109.65625 454.496094 108.488281 455.941406 108.488281 C 457.382812 108.488281 458.554688 109.65625 458.554688 111.097656 C 458.554688 112.539062 457.382812 113.710938 455.941406 113.710938 " fill-opacity="1" fill-rule="nonzero"/><path fill="#ff1b1b" d="M 435.980469 113.710938 C 434.53125 113.710938 433.355469 112.539062 433.355469 111.097656 C 433.355469 109.65625 434.53125 108.488281 435.980469 108.488281 C 437.421875 108.488281 438.59375 109.65625 438.59375 111.097656 C 438.59375 112.539062 437.421875 113.710938 435.980469 113.710938 " fill-opacity="1" fill-rule="nonzero"/><path fill="#ff3131" d="M 416.015625 113.710938 C 414.570312 113.710938 413.398438 112.539062 413.398438 111.097656 C 413.398438 109.65625 414.570312 108.488281 416.015625 108.488281 C 417.460938 108.488281 418.628906 109.65625 418.628906 111.097656 C 418.628906 112.539062 417.460938 113.710938 416.015625 113.710938 " fill-opacity="1" fill-rule="nonzero"/><path fill="#ff1b1b" d="M 396.050781 113.710938 C 394.609375 113.710938 393.4375 112.539062 393.4375 111.097656 C 393.4375 109.65625 394.609375 108.488281 396.050781 108.488281 C 397.496094 108.488281 398.667969 109.65625 398.667969 111.097656 C 398.667969 112.539062 397.496094 113.710938 396.050781 113.710938 " fill-opacity="1" fill-rule="nonzero"/><path fill="#ff1b1b" d="M 376.089844 113.710938 C 374.644531 113.710938 373.476562 112.539062 373.476562 111.097656 C 373.476562 109.65625 374.644531 108.488281 376.089844 108.488281 C 377.535156 108.488281 378.707031 109.65625 378.707031 111.097656 C 378.707031 112.539062 377.535156 113.710938 376.089844 113.710938 " fill-opacity="1" fill-rule="nonzero"/><g clip-path="url(#cb6b0de361)"><path fill="#ff1b1b" d="M 632.894531 129.429688 L 199.132812 129.429688 C 198.167969 129.429688 197.394531 128.652344 197.394531 127.695312 C 197.394531 126.738281 198.167969 125.964844 199.132812 125.964844 L 632.894531 125.964844 C 633.855469 125.964844 634.636719 126.738281 634.636719 127.695312 C 634.636719 128.652344 633.855469 129.429688 632.894531 129.429688 " fill-opacity="1" fill-rule="nonzero"/></g><path fill="#ff1b1b" d="M 539.253906 97.566406 L 292.769531 97.566406 C 291.8125 97.566406 291.035156 96.792969 291.035156 95.835938 C 291.035156 94.878906 291.8125 94.101562 292.769531 94.101562 L 539.253906 94.101562 C 540.21875 94.101562 540.992188 94.878906 540.992188 95.835938 C 540.992188 96.792969 540.21875 97.566406 539.253906 97.566406 " fill-opacity="1" fill-rule="nonzero"/><path fill="#ff1b1b" d="M 565.03125 113.125 L 545.046875 113.125 L 562.449219 95.058594 L 582.425781 95.058594 L 565.03125 113.125 " fill-opacity="1" fill-rule="nonzero"/><path fill="#ff1b1b" d="M 588.554688 113.125 L 568.574219 113.125 L 585.976562 95.058594 L 605.957031 95.058594 L 588.554688 113.125 " fill-opacity="1" fill-rule="nonzero"/><path fill="#ff3131" d="M 612.082031 113.125 L 592.105469 113.125 L 609.503906 95.058594 L 629.484375 95.058594 L 612.082031 113.125 " fill-opacity="1" fill-rule="nonzero"/><path fill="#ff1b1b" d="M 286.984375 113.125 L 266.996094 113.125 L 249.597656 95.058594 L 269.582031 95.058594 L 286.984375 113.125 " fill-opacity="1" fill-rule="nonzero"/><path fill="#ff1b1b" d="M 263.449219 113.125 L 243.476562 113.125 L 226.074219 95.058594 L 246.046875 95.058594 L 263.449219 113.125 " fill-opacity="1" fill-rule="nonzero"/><path fill="#ff3131" d="M 239.925781 113.125 L 219.945312 113.125 L 202.546875 95.058594 L 222.523438 95.058594 L 239.925781 113.125 " fill-opacity="1" fill-rule="nonzero"/><g clip-path="url(#45c7fe51b0)"><path fill="#ff3131" d="M 482.050781 116.511719 L 643.925781 116.511719 L 654.917969 105.542969 C 655.246094 105.21875 655.6875 105.035156 656.148438 105.035156 L 706.679688 105.035156 L 720.078125 91.667969 L 559.703125 91.667969 L 544.226562 107.109375 C 543.90625 107.433594 543.464844 107.617188 543 107.617188 L 490.988281 107.617188 Z M 644.644531 119.976562 L 477.847656 119.976562 C 477.144531 119.976562 476.507812 119.554688 476.242188 118.90625 C 475.980469 118.257812 476.125 117.515625 476.617188 117.019531 L 489.039062 104.660156 C 489.367188 104.335938 489.808594 104.15625 490.265625 104.15625 L 542.285156 104.15625 L 557.761719 88.714844 C 558.085938 88.386719 558.527344 88.203125 558.984375 88.203125 L 724.265625 88.203125 C 724.972656 88.203125 725.601562 88.628906 725.871094 89.273438 C 726.140625 89.917969 725.988281 90.667969 725.496094 91.160156 L 708.625 107.996094 C 708.300781 108.316406 707.859375 108.5 707.398438 108.5 L 656.867188 108.5 L 645.871094 119.46875 C 645.546875 119.796875 645.105469 119.976562 644.644531 119.976562 " fill-opacity="1" fill-rule="nonzero"/></g><g clip-path="url(#7388dfb976)"><path fill="#ff3131" d="M 188.101562 116.511719 L 349.980469 116.511719 L 341.039062 107.617188 L 289.03125 107.617188 C 288.574219 107.617188 288.125 107.433594 287.800781 107.109375 L 272.324219 91.667969 L 111.949219 91.667969 L 125.34375 105.035156 L 175.882812 105.035156 C 176.347656 105.035156 176.785156 105.21875 177.109375 105.542969 Z M 354.179688 119.976562 L 187.378906 119.976562 C 186.921875 119.976562 186.484375 119.796875 186.15625 119.46875 L 175.164062 108.5 L 124.628906 108.5 C 124.167969 108.5 123.730469 108.316406 123.402344 107.996094 L 106.53125 91.160156 C 106.039062 90.667969 105.886719 89.917969 106.152344 89.273438 C 106.421875 88.628906 107.058594 88.203125 107.757812 88.203125 L 273.039062 88.203125 C 273.503906 88.203125 273.941406 88.386719 274.269531 88.714844 L 289.75 104.15625 L 341.757812 104.15625 C 342.222656 104.15625 342.660156 104.335938 342.984375 104.660156 L 355.40625 117.019531 C 355.902344 117.515625 356.050781 118.257812 355.78125 118.90625 C 355.515625 119.554688 354.882812 119.976562 354.179688 119.976562 " fill-opacity="1" fill-rule="nonzero"/></g><g fill="#ffffff" fill-opacity="1"><g transform="translate(128.920087, 255.116684)"><g><path d="M 26.082031 -37.703125 L 4.941406 -37.703125 C 4.574219 -37.703125 3.660156 -37.566406 3.660156 -36.101562 L 3.660156 -32.488281 C 3.660156 -31.070312 4.574219 -30.933594 4.941406 -30.933594 L 24.890625 -30.933594 C 26.035156 -30.933594 26.859375 -30.613281 27.316406 -29.925781 C 27.820312 -29.238281 28.050781 -28.140625 28.050781 -26.632812 C 28.050781 -25.121094 27.820312 -24.023438 27.316406 -23.335938 C 26.859375 -22.648438 26.035156 -22.328125 24.890625 -22.328125 L 4.941406 -22.328125 C 4.574219 -22.328125 3.660156 -22.191406 3.660156 -20.773438 L 3.660156 -1.554688 C 3.660156 -0.136719 4.574219 0.046875 4.941406 0.046875 L 9.152344 0.046875 C 9.515625 0.046875 10.433594 -0.136719 10.433594 -1.554688 L 10.433594 -15.558594 L 26.082031 -15.601562 C 29.191406 -15.601562 31.433594 -16.5625 32.808594 -18.484375 C 34.179688 -20.40625 34.820312 -23.152344 34.820312 -26.769531 L 34.820312 -26.492188 C 34.820312 -30.152344 34.179688 -32.898438 32.808594 -34.777344 C 31.433594 -36.742188 29.191406 -37.703125 26.082031 -37.703125 Z M 26.082031 -37.703125 "/></g></g></g><g fill="#ffffff" fill-opacity="1"><g transform="translate(169.683399, 255.116684)"><g><path d="M 35.277344 -37.703125 L 31.070312 -37.703125 C 30.65625 -37.703125 29.789062 -37.566406 29.789062 -36.148438 L 29.789062 -13.589844 C 29.789062 -12.21875 29.695312 -11.027344 29.558594 -10.15625 C 29.421875 -9.289062 29.148438 -8.601562 28.828125 -8.097656 C 28.460938 -7.640625 28.050781 -7.320312 27.453125 -7.09375 C 26.859375 -6.910156 26.035156 -6.773438 25.074219 -6.773438 L 15.191406 -6.773438 C 14.230469 -6.773438 13.40625 -6.910156 12.8125 -7.09375 C 12.21875 -7.320312 11.804688 -7.640625 11.4375 -8.097656 C 11.117188 -8.601562 10.84375 -9.289062 10.660156 -10.15625 C 10.523438 -11.027344 10.433594 -12.21875 10.433594 -13.589844 L 10.433594 -36.148438 C 10.433594 -37.566406 9.5625 -37.703125 9.152344 -37.703125 L 4.988281 -37.703125 C 4.574219 -37.703125 3.660156 -37.566406 3.660156 -36.148438 L 3.660156 -14.320312 C 3.660156 -11.757812 3.84375 -9.5625 4.253906 -7.777344 C 4.667969 -5.949219 5.355469 -4.4375 6.269531 -3.292969 C 7.136719 -2.105469 8.375 -1.28125 9.792969 -0.730469 C 11.210938 -0.230469 12.949219 0 14.960938 0 L 25.257812 0 C 27.269531 0 29.011719 -0.230469 30.429688 -0.730469 C 31.894531 -1.28125 33.082031 -2.105469 33.996094 -3.292969 C 34.914062 -4.4375 35.554688 -5.949219 35.964844 -7.777344 C 36.378906 -9.5625 36.558594 -11.757812 36.558594 -14.320312 L 36.558594 -36.148438 C 36.558594 -37.566406 35.691406 -37.703125 35.277344 -37.703125 Z M 35.277344 -37.703125 "/></g></g></g><g fill="#ffffff" fill-opacity="1"><g transform="translate(212.185218, 255.116684)"><g><path d="M 34.867188 -26.769531 C 34.867188 -26.722656 34.867188 -26.675781 34.867188 -26.632812 C 34.867188 -26.585938 34.867188 -26.539062 34.867188 -26.492188 Z M 35.738281 -1.96875 L 27.730469 -15.695312 C 29.972656 -15.96875 31.710938 -16.929688 32.855469 -18.484375 C 34.136719 -20.363281 34.820312 -23.0625 34.867188 -26.632812 C 34.820312 -30.199219 34.136719 -32.898438 32.855469 -34.777344 C 31.480469 -36.742188 29.191406 -37.703125 26.082031 -37.703125 L 4.988281 -37.703125 C 4.574219 -37.703125 3.660156 -37.566406 3.660156 -36.101562 L 3.660156 -32.488281 C 3.660156 -31.070312 4.574219 -30.933594 4.988281 -30.933594 L 24.890625 -30.933594 C 26.082031 -30.933594 26.859375 -30.613281 27.316406 -29.925781 C 27.820312 -29.238281 28.050781 -28.140625 28.050781 -26.632812 C 28.050781 -25.121094 27.820312 -24.023438 27.316406 -23.335938 C 26.859375 -22.648438 26.082031 -22.328125 24.890625 -22.328125 L 4.988281 -22.328125 C 4.574219 -22.328125 3.660156 -22.191406 3.660156 -20.773438 L 3.660156 -1.554688 C 3.660156 -0.136719 4.574219 0.046875 4.988281 0.046875 L 9.152344 0.046875 C 9.5625 0.046875 10.433594 -0.136719 10.433594 -1.554688 L 10.433594 -15.558594 L 20.085938 -15.558594 L 28.371094 -0.871094 C 28.550781 -0.59375 28.691406 -0.367188 28.871094 -0.230469 C 29.101562 -0.046875 29.421875 0.046875 29.832031 0.046875 L 34.867188 0.046875 C 35.417969 0.046875 35.828125 -0.320312 35.917969 -0.871094 C 35.964844 -1.328125 35.917969 -1.691406 35.738281 -1.96875 Z M 35.738281 -1.96875 "/></g></g></g><g fill="#ffffff" fill-opacity="1"><g transform="translate(254.092287, 255.116684)"><g><path d="M 26.082031 -37.703125 L 4.941406 -37.703125 C 4.574219 -37.703125 3.660156 -37.566406 3.660156 -36.101562 L 3.660156 -32.488281 C 3.660156 -31.070312 4.574219 -30.933594 4.941406 -30.933594 L 24.890625 -30.933594 C 26.035156 -30.933594 26.859375 -30.613281 27.316406 -29.925781 C 27.820312 -29.238281 28.050781 -28.140625 28.050781 -26.632812 C 28.050781 -25.121094 27.820312 -24.023438 27.316406 -23.335938 C 26.859375 -22.648438 26.035156 -22.328125 24.890625 -22.328125 L 4.941406 -22.328125 C 4.574219 -22.328125 3.660156 -22.191406 3.660156 -20.773438 L 3.660156 -1.554688 C 3.660156 -0.136719 4.574219 0.046875 4.941406 0.046875 L 9.152344 0.046875 C 9.515625 0.046875 10.433594 -0.136719 10.433594 -1.554688 L 10.433594 -15.558594 L 26.082031 -15.601562 C 29.191406 -15.601562 31.433594 -16.5625 32.808594 -18.484375 C 34.179688 -20.40625 34.820312 -23.152344 34.820312 -26.769531 L 34.820312 -26.492188 C 34.820312 -30.152344 34.179688 -32.898438 32.808594 -34.777344 C 31.433594 -36.742188 29.191406 -37.703125 26.082031 -37.703125 Z M 26.082031 -37.703125 "/></g></g></g><g fill="#ffffff" fill-opacity="1"><g transform="translate(294.8556, 255.116684)"><g><path d="M 30.0625 -6.773438 L 15.191406 -6.773438 C 14.230469 -6.773438 13.453125 -6.863281 12.8125 -7.09375 C 12.261719 -7.277344 11.804688 -7.597656 11.484375 -8.097656 C 11.117188 -8.601562 10.84375 -9.289062 10.707031 -10.113281 C 10.523438 -11.027344 10.476562 -12.171875 10.476562 -13.542969 L 10.476562 -36.101562 C 10.476562 -37.566406 9.5625 -37.703125 9.195312 -37.703125 L 4.988281 -37.703125 C 4.574219 -37.703125 3.660156 -37.566406 3.660156 -36.101562 L 3.660156 -14.320312 C 3.660156 -11.757812 3.890625 -9.5625 4.300781 -7.777344 C 4.714844 -5.949219 5.355469 -4.4375 6.269531 -3.292969 C 7.183594 -2.105469 8.375 -1.234375 9.835938 -0.730469 C 11.210938 -0.230469 12.949219 0.046875 14.960938 0.046875 L 30.0625 0.046875 C 30.472656 0.046875 31.34375 -0.136719 31.34375 -1.554688 L 31.34375 -5.171875 C 31.34375 -6.589844 30.472656 -6.773438 30.0625 -6.773438 Z M 30.0625 -6.773438 "/></g></g></g><g fill="#ffffff" fill-opacity="1"><g transform="translate(332.141912, 255.116684)"><g><path d="M 31.160156 -8.191406 L 15.054688 -8.191406 C 14.09375 -8.191406 13.316406 -8.328125 12.675781 -8.511719 C 12.078125 -8.738281 11.667969 -9.058594 11.300781 -9.515625 C 10.9375 -10.019531 10.660156 -10.707031 10.523438 -11.578125 C 10.476562 -11.804688 10.476562 -12.125 10.433594 -12.355469 C 10.433594 -12.355469 10.476562 -15.648438 10.523438 -15.648438 L 30.976562 -15.648438 C 31.34375 -15.648438 32.257812 -15.832031 32.257812 -17.25 L 32.257812 -20.867188 C 32.257812 -22.285156 31.34375 -22.421875 30.976562 -22.421875 L 7.367188 -22.375 C 6.039062 -22.285156 4.894531 -21.597656 4.253906 -20.453125 C 4.027344 -20.085938 3.84375 -19.722656 3.753906 -19.308594 L 3.660156 -13.542969 L 3.660156 -13.316406 C 3.707031 -11.164062 3.933594 -9.335938 4.253906 -7.824219 C 4.667969 -5.996094 5.355469 -4.484375 6.222656 -3.339844 C 7.136719 -2.152344 8.328125 -1.328125 9.792969 -0.824219 C 11.210938 -0.273438 12.902344 -0.046875 14.917969 -0.046875 L 31.160156 -0.046875 C 31.574219 -0.046875 32.488281 -0.183594 32.488281 -1.601562 L 32.488281 -6.636719 C 32.488281 -8.054688 31.574219 -8.191406 31.160156 -8.191406 Z M 31.207031 -37.796875 L 4.894531 -37.796875 C 4.53125 -37.796875 3.660156 -37.613281 3.660156 -36.148438 L 3.660156 -32.578125 C 3.660156 -31.160156 4.53125 -31.023438 4.894531 -31.023438 L 31.207031 -30.976562 C 31.574219 -30.976562 32.488281 -31.160156 32.488281 -32.578125 L 32.488281 -36.195312 C 32.488281 -37.613281 31.574219 -37.796875 31.207031 -37.796875 Z M 31.207031 -37.796875 "/></g></g></g><g fill="#ffffff" fill-opacity="1"><g transform="translate(370.571991, 255.116684)"><g/></g></g><g fill="#ffffff" fill-opacity="1"><g transform="translate(396.375028, 255.116684)"><g><path d="M 28.1875 -33.449219 C 28.09375 -33.675781 28.003906 -33.953125 27.910156 -34.136719 C 27.179688 -36.515625 24.984375 -38.207031 22.46875 -38.207031 C 21.324219 -38.207031 20.226562 -37.886719 19.308594 -37.246094 C 19.035156 -37.109375 18.804688 -36.925781 18.625 -36.789062 C 17.9375 -36.195312 17.25 -35.097656 16.609375 -33.449219 L 3.84375 -1.738281 C 3.707031 -1.328125 3.660156 -0.914062 3.753906 -0.640625 C 3.796875 -0.367188 4.027344 0.046875 4.757812 0.046875 L 9.792969 0.046875 C 10.386719 0.046875 10.84375 -0.320312 11.074219 -0.914062 L 13.679688 -7.457031 L 23.703125 -7.457031 C 24.207031 -7.457031 24.664062 -7.6875 24.890625 -8.097656 C 25.167969 -8.464844 25.210938 -8.96875 25.074219 -9.425781 L 23.429688 -13.5 C 23.199219 -14.046875 22.695312 -14.414062 22.101562 -14.414062 L 16.425781 -14.414062 L 22.285156 -29.238281 C 22.328125 -29.332031 22.375 -29.375 22.375 -29.375 L 22.558594 -29.375 C 22.558594 -29.375 22.558594 -29.375 22.605469 -29.285156 L 33.953125 -0.960938 C 34.179688 -0.320312 34.636719 0.046875 35.277344 0.046875 L 40.175781 0.046875 C 40.90625 0.046875 41.089844 -0.410156 41.183594 -0.640625 C 41.273438 -0.914062 41.226562 -1.328125 41.042969 -1.738281 Z M 28.1875 -33.449219 "/></g></g></g><g fill="#ffffff" fill-opacity="1"><g transform="translate(443.589111, 255.116684)"><g><path d="M 35.277344 -37.703125 L 31.070312 -37.703125 C 30.65625 -37.703125 29.789062 -37.566406 29.789062 -36.148438 L 29.789062 -13.589844 C 29.789062 -12.21875 29.695312 -11.027344 29.558594 -10.15625 C 29.421875 -9.289062 29.148438 -8.601562 28.828125 -8.097656 C 28.460938 -7.640625 28.050781 -7.320312 27.453125 -7.09375 C 26.859375 -6.910156 26.035156 -6.773438 25.074219 -6.773438 L 15.191406 -6.773438 C 14.230469 -6.773438 13.40625 -6.910156 12.8125 -7.09375 C 12.21875 -7.320312 11.804688 -7.640625 11.4375 -8.097656 C 11.117188 -8.601562 10.84375 -9.289062 10.660156 -10.15625 C 10.523438 -11.027344 10.433594 -12.21875 10.433594 -13.589844 L 10.433594 -36.148438 C 10.433594 -37.566406 9.5625 -37.703125 9.152344 -37.703125 L 4.988281 -37.703125 C 4.574219 -37.703125 3.660156 -37.566406 3.660156 -36.148438 L 3.660156 -14.320312 C 3.660156 -11.757812 3.84375 -9.5625 4.253906 -7.777344 C 4.667969 -5.949219 5.355469 -4.4375 6.269531 -3.292969 C 7.136719 -2.105469 8.375 -1.28125 9.792969 -0.730469 C 11.210938 -0.230469 12.949219 0 14.960938 0 L 25.257812 0 C 27.269531 0 29.011719 -0.230469 30.429688 -0.730469 C 31.894531 -1.28125 33.082031 -2.105469 33.996094 -3.292969 C 34.914062 -4.4375 35.554688 -5.949219 35.964844 -7.777344 C 36.378906 -9.5625 36.558594 -11.757812 36.558594 -14.320312 L 36.558594 -36.148438 C 36.558594 -37.566406 35.691406 -37.703125 35.277344 -37.703125 Z M 35.277344 -37.703125 "/></g></g></g><g fill="#ffffff" fill-opacity="1"><g transform="translate(486.09093, 255.116684)"><g><path d="M 34.914062 -29.191406 C 34.457031 -31.113281 33.675781 -32.714844 32.714844 -33.996094 C 31.710938 -35.234375 30.382812 -36.195312 28.828125 -36.789062 C 27.269531 -37.382812 25.441406 -37.703125 23.289062 -37.703125 L 7.320312 -37.703125 L 7.320312 -37.660156 C 5.996094 -37.566406 4.851562 -36.835938 4.164062 -35.738281 C 3.980469 -35.371094 3.796875 -34.957031 3.707031 -34.59375 L 3.660156 -3.339844 C 3.753906 -2.835938 3.933594 -2.332031 4.164062 -1.921875 C 4.894531 -0.6875 6.222656 0.046875 7.640625 0.046875 L 23.289062 0.046875 C 25.441406 0.046875 27.316406 -0.273438 28.828125 -0.871094 C 30.382812 -1.464844 31.710938 -2.425781 32.714844 -3.707031 C 33.675781 -4.941406 34.457031 -6.542969 34.914062 -8.464844 C 35.371094 -10.386719 35.597656 -12.675781 35.597656 -15.238281 L 35.597656 -22.421875 C 35.597656 -24.984375 35.371094 -27.269531 34.914062 -29.191406 Z M 10.386719 -7 L 10.386719 -30.65625 C 10.386719 -30.839844 10.433594 -30.933594 10.476562 -30.933594 L 23.152344 -30.933594 C 24.207031 -30.933594 25.121094 -30.792969 25.851562 -30.519531 C 26.585938 -30.246094 27.132812 -29.878906 27.546875 -29.285156 C 28.003906 -28.691406 28.324219 -27.910156 28.507812 -26.949219 C 28.691406 -25.898438 28.828125 -24.617188 28.828125 -23.109375 L 28.828125 -14.550781 C 28.828125 -13.039062 28.691406 -11.757812 28.507812 -10.753906 C 28.324219 -9.746094 28.003906 -8.96875 27.546875 -8.375 C 27.132812 -7.824219 26.585938 -7.414062 25.851562 -7.136719 C 25.121094 -6.863281 24.207031 -6.773438 23.152344 -6.773438 L 10.433594 -6.773438 C 10.433594 -6.773438 10.386719 -6.816406 10.386719 -7 Z M 10.386719 -7 "/></g></g></g><g fill="#ffffff" fill-opacity="1"><g transform="translate(527.632018, 255.116684)"><g><path d="M 9.152344 -37.703125 L 4.941406 -37.703125 C 4.574219 -37.703125 3.660156 -37.519531 3.660156 -36.101562 L 3.660156 -1.554688 C 3.660156 -0.136719 4.574219 0.046875 4.941406 0.046875 L 9.152344 0.046875 C 9.515625 0.046875 10.433594 -0.136719 10.433594 -1.554688 L 10.433594 -36.101562 C 10.433594 -37.519531 9.515625 -37.703125 9.152344 -37.703125 Z M 9.152344 -37.703125 "/></g></g></g><g fill="#ffffff" fill-opacity="1"><g transform="translate(544.010526, 255.116684)"><g><path d="M 31.160156 -8.191406 L 15.054688 -8.191406 C 14.09375 -8.191406 13.316406 -8.328125 12.675781 -8.511719 C 12.078125 -8.738281 11.667969 -9.058594 11.300781 -9.515625 C 10.9375 -10.019531 10.660156 -10.707031 10.523438 -11.578125 C 10.476562 -11.804688 10.476562 -12.125 10.433594 -12.355469 C 10.433594 -12.355469 10.476562 -15.648438 10.523438 -15.648438 L 30.976562 -15.648438 C 31.34375 -15.648438 32.257812 -15.832031 32.257812 -17.25 L 32.257812 -20.867188 C 32.257812 -22.285156 31.34375 -22.421875 30.976562 -22.421875 L 7.367188 -22.375 C 6.039062 -22.285156 4.894531 -21.597656 4.253906 -20.453125 C 4.027344 -20.085938 3.84375 -19.722656 3.753906 -19.308594 L 3.660156 -13.542969 L 3.660156 -13.316406 C 3.707031 -11.164062 3.933594 -9.335938 4.253906 -7.824219 C 4.667969 -5.996094 5.355469 -4.484375 6.222656 -3.339844 C 7.136719 -2.152344 8.328125 -1.328125 9.792969 -0.824219 C 11.210938 -0.273438 12.902344 -0.046875 14.917969 -0.046875 L 31.160156 -0.046875 C 31.574219 -0.046875 32.488281 -0.183594 32.488281 -1.601562 L 32.488281 -6.636719 C 32.488281 -8.054688 31.574219 -8.191406 31.160156 -8.191406 Z M 31.207031 -37.796875 L 4.894531 -37.796875 C 4.53125 -37.796875 3.660156 -37.613281 3.660156 -36.148438 L 3.660156 -32.578125 C 3.660156 -31.160156 4.53125 -31.023438 4.894531 -31.023438 L 31.207031 -30.976562 C 31.574219 -30.976562 32.488281 -31.160156 32.488281 -32.578125 L 32.488281 -36.195312 C 32.488281 -37.613281 31.574219 -37.796875 31.207031 -37.796875 Z M 31.207031 -37.796875 "/></g></g></g><g fill="#ffffff" fill-opacity="1"><g transform="translate(582.440605, 255.116684)"><g><path d="M 36.058594 -37.703125 L 31.984375 -37.703125 C 31.574219 -37.703125 30.703125 -37.566406 30.703125 -36.101562 L 30.703125 -8.601562 C 30.703125 -8.558594 30.703125 -8.558594 30.703125 -8.511719 L 30.472656 -8.511719 C 30.429688 -8.511719 30.382812 -8.511719 30.335938 -8.648438 L 15.878906 -34.363281 C 15.511719 -35.050781 15.191406 -35.597656 14.871094 -36.011719 C 14.550781 -36.46875 14.230469 -36.835938 13.910156 -37.0625 C 13.542969 -37.339844 13.132812 -37.519531 12.628906 -37.613281 C 12.171875 -37.660156 11.621094 -37.703125 11.027344 -37.703125 L 7.597656 -37.703125 C 6.269531 -37.703125 5.261719 -37.246094 4.621094 -36.421875 C 3.980469 -35.554688 3.660156 -34.042969 3.660156 -31.800781 L 3.660156 -1.554688 C 3.660156 -0.136719 4.574219 0.046875 4.988281 0.046875 L 9.058594 0.046875 C 9.472656 0.046875 10.339844 -0.136719 10.339844 -1.554688 L 10.339844 -29.054688 C 10.339844 -29.101562 10.339844 -29.148438 10.339844 -29.148438 L 10.570312 -29.148438 C 10.570312 -29.148438 10.617188 -29.148438 10.707031 -29.011719 L 25.210938 -3.292969 C 25.578125 -2.5625 25.945312 -2.011719 26.265625 -1.601562 C 26.585938 -1.144531 26.90625 -0.824219 27.269531 -0.59375 C 27.636719 -0.320312 28.050781 -0.183594 28.507812 -0.0898438 C 28.917969 0 29.421875 0.046875 30.0625 0.046875 L 33.402344 0.046875 C 34.730469 0.046875 35.738281 -0.410156 36.378906 -1.28125 C 37.019531 -2.105469 37.339844 -3.613281 37.339844 -5.855469 L 37.339844 -36.101562 C 37.339844 -37.566406 36.421875 -37.703125 36.058594 -37.703125 Z M 36.058594 -37.703125 "/></g></g></g><g fill="#ffffff" fill-opacity="1"><g transform="translate(625.720188, 255.116684)"><g><path d="M 31.617188 -37.703125 L 14.960938 -37.703125 C 12.949219 -37.703125 11.210938 -37.429688 9.792969 -36.925781 C 8.328125 -36.378906 7.136719 -35.507812 6.269531 -34.363281 C 5.355469 -33.21875 4.667969 -31.710938 4.253906 -29.878906 C 3.84375 -28.09375 3.660156 -25.898438 3.660156 -23.382812 L 3.660156 -14.320312 C 3.660156 -11.757812 3.84375 -9.5625 4.253906 -7.734375 C 4.667969 -5.949219 5.355469 -4.4375 6.269531 -3.25 C 7.183594 -2.105469 8.375 -1.234375 9.792969 -0.730469 C 11.210938 -0.230469 12.949219 0.046875 14.960938 0.046875 L 31.617188 0.046875 C 31.984375 0.046875 32.898438 -0.136719 32.898438 -1.554688 L 32.898438 -5.171875 C 32.898438 -6.589844 31.984375 -6.773438 31.617188 -6.773438 L 15.191406 -6.773438 C 14.230469 -6.773438 13.40625 -6.863281 12.8125 -7.09375 C 12.21875 -7.277344 11.804688 -7.597656 11.4375 -8.097656 C 11.074219 -8.558594 10.84375 -9.242188 10.660156 -10.113281 C 10.523438 -11.027344 10.433594 -12.171875 10.433594 -13.542969 L 10.433594 -24.207031 C 10.433594 -25.578125 10.523438 -26.722656 10.660156 -27.589844 C 10.84375 -28.460938 11.074219 -29.101562 11.4375 -29.605469 C 11.804688 -30.109375 12.21875 -30.429688 12.8125 -30.613281 C 13.40625 -30.839844 14.230469 -30.933594 15.191406 -30.933594 L 31.617188 -30.933594 C 31.984375 -30.933594 32.898438 -31.113281 32.898438 -32.578125 L 32.898438 -36.101562 C 32.898438 -37.519531 31.984375 -37.703125 31.617188 -37.703125 Z M 31.617188 -37.703125 "/></g></g></g><g fill="#ffffff" fill-opacity="1"><g transform="translate(664.562026, 255.116684)"><g><path d="M 31.160156 -8.191406 L 15.054688 -8.191406 C 14.09375 -8.191406 13.316406 -8.328125 12.675781 -8.511719 C 12.078125 -8.738281 11.667969 -9.058594 11.300781 -9.515625 C 10.9375 -10.019531 10.660156 -10.707031 10.523438 -11.578125 C 10.476562 -11.804688 10.476562 -12.125 10.433594 -12.355469 C 10.433594 -12.355469 10.476562 -15.648438 10.523438 -15.648438 L 30.976562 -15.648438 C 31.34375 -15.648438 32.257812 -15.832031 32.257812 -17.25 L 32.257812 -20.867188 C 32.257812 -22.285156 31.34375 -22.421875 30.976562 -22.421875 L 7.367188 -22.375 C 6.039062 -22.285156 4.894531 -21.597656 4.253906 -20.453125 C 4.027344 -20.085938 3.84375 -19.722656 3.753906 -19.308594 L 3.660156 -13.542969 L 3.660156 -13.316406 C 3.707031 -11.164062 3.933594 -9.335938 4.253906 -7.824219 C 4.667969 -5.996094 5.355469 -4.484375 6.222656 -3.339844 C 7.136719 -2.152344 8.328125 -1.328125 9.792969 -0.824219 C 11.210938 -0.273438 12.902344 -0.046875 14.917969 -0.046875 L 31.160156 -0.046875 C 31.574219 -0.046875 32.488281 -0.183594 32.488281 -1.601562 L 32.488281 -6.636719 C 32.488281 -8.054688 31.574219 -8.191406 31.160156 -8.191406 Z M 31.207031 -37.796875 L 4.894531 -37.796875 C 4.53125 -37.796875 3.660156 -37.613281 3.660156 -36.148438 L 3.660156 -32.578125 C 3.660156 -31.160156 4.53125 -31.023438 4.894531 -31.023438 L 31.207031 -30.976562 C 31.574219 -30.976562 32.488281 -31.160156 32.488281 -32.578125 L 32.488281 -36.195312 C 32.488281 -37.613281 31.574219 -37.796875 31.207031 -37.796875 Z M 31.207031 -37.796875 "/></g></g></g><path fill="#ff1b1b" d="M 469.726562 374.792969 C 468.28125 374.792969 467.109375 375.964844 467.109375 377.40625 C 467.109375 378.847656 468.28125 380.015625 469.726562 380.015625 C 471.167969 380.015625 472.339844 378.847656 472.339844 377.40625 C 472.339844 375.964844 471.167969 374.792969 469.726562 374.792969 " fill-opacity="1" fill-rule="nonzero"/><path fill="#ff1b1b" d="M 449.765625 374.792969 C 448.316406 374.792969 447.144531 375.964844 447.144531 377.40625 C 447.144531 378.847656 448.316406 380.015625 449.765625 380.015625 C 451.210938 380.015625 452.378906 378.847656 452.378906 377.40625 C 452.378906 375.964844 451.210938 374.792969 449.765625 374.792969 " fill-opacity="1" fill-rule="nonzero"/><path fill="#ff3131" d="M 429.800781 374.792969 C 428.355469 374.792969 427.183594 375.964844 427.183594 377.40625 C 427.183594 378.847656 428.355469 380.015625 429.800781 380.015625 C 431.25 380.015625 432.414062 378.847656 432.414062 377.40625 C 432.414062 375.964844 431.25 374.792969 429.800781 374.792969 " fill-opacity="1" fill-rule="nonzero"/><path fill="#ff1b1b" d="M 409.839844 374.792969 C 408.394531 374.792969 407.222656 375.964844 407.222656 377.40625 C 407.222656 378.847656 408.394531 380.015625 409.839844 380.015625 C 411.285156 380.015625 412.453125 378.847656 412.453125 377.40625 C 412.453125 375.964844 411.285156 374.792969 409.839844 374.792969 " fill-opacity="1" fill-rule="nonzero"/><path fill="#ff1b1b" d="M 389.878906 374.792969 C 388.429688 374.792969 387.261719 375.964844 387.261719 377.40625 C 387.261719 378.847656 388.429688 380.015625 389.878906 380.015625 C 391.320312 380.015625 392.492188 378.847656 392.492188 377.40625 C 392.492188 375.964844 391.320312 374.792969 389.878906 374.792969 " fill-opacity="1" fill-rule="nonzero"/><g clip-path="url(#d18d5dba3c)"><path fill="#ff1b1b" d="M 646.683594 359.074219 L 212.917969 359.074219 C 211.953125 359.074219 211.179688 359.851562 211.179688 360.808594 C 211.179688 361.765625 211.953125 362.539062 212.917969 362.539062 L 646.683594 362.539062 C 647.640625 362.539062 648.421875 361.765625 648.421875 360.808594 C 648.421875 359.851562 647.640625 359.074219 646.683594 359.074219 " fill-opacity="1" fill-rule="nonzero"/></g><path fill="#ff1b1b" d="M 553.039062 390.933594 L 306.554688 390.933594 C 305.597656 390.933594 304.824219 391.710938 304.824219 392.667969 C 304.824219 393.625 305.597656 394.398438 306.554688 394.398438 L 553.039062 394.398438 C 554.003906 394.398438 554.777344 393.625 554.777344 392.667969 C 554.777344 391.710938 554.003906 390.933594 553.039062 390.933594 " fill-opacity="1" fill-rule="nonzero"/><path fill="#ff1b1b" d="M 578.816406 375.378906 L 558.832031 375.378906 L 576.234375 393.445312 L 596.210938 393.445312 L 578.816406 375.378906 " fill-opacity="1" fill-rule="nonzero"/><path fill="#ff1b1b" d="M 602.339844 375.378906 L 582.359375 375.378906 L 599.761719 393.445312 L 619.742188 393.445312 L 602.339844 375.378906 " fill-opacity="1" fill-rule="nonzero"/><path fill="#ff3131" d="M 625.867188 375.378906 L 605.890625 375.378906 L 623.289062 393.445312 L 643.269531 393.445312 L 625.867188 375.378906 " fill-opacity="1" fill-rule="nonzero"/><path fill="#ff1b1b" d="M 300.769531 375.378906 L 280.785156 375.378906 L 263.386719 393.445312 L 283.367188 393.445312 L 300.769531 375.378906 " fill-opacity="1" fill-rule="nonzero"/><path fill="#ff1b1b" d="M 277.238281 375.378906 L 257.261719 375.378906 L 239.859375 393.445312 L 259.835938 393.445312 L 277.238281 375.378906 " fill-opacity="1" fill-rule="nonzero"/><path fill="#ff3131" d="M 253.710938 375.378906 L 233.734375 375.378906 L 216.332031 393.445312 L 236.308594 393.445312 L 253.710938 375.378906 " fill-opacity="1" fill-rule="nonzero"/><g clip-path="url(#c9725a4f7f)"><path fill="#ff3131" d="M 495.835938 371.992188 L 657.710938 371.992188 L 668.703125 382.960938 C 669.03125 383.28125 669.472656 383.46875 669.933594 383.46875 L 720.464844 383.46875 L 733.863281 396.832031 L 573.492188 396.832031 L 558.015625 381.394531 C 557.691406 381.070312 557.25 380.886719 556.785156 380.886719 L 504.773438 380.886719 Z M 658.429688 368.527344 L 491.636719 368.527344 C 490.933594 368.527344 490.296875 368.949219 490.027344 369.597656 C 489.765625 370.246094 489.914062 370.988281 490.40625 371.484375 L 502.828125 383.84375 C 503.152344 384.167969 503.597656 384.347656 504.054688 384.347656 L 556.070312 384.347656 L 571.546875 399.789062 C 571.875 400.117188 572.3125 400.296875 572.769531 400.296875 L 738.054688 400.296875 C 738.761719 400.296875 739.390625 399.875 739.65625 399.230469 C 739.925781 398.582031 739.777344 397.835938 739.285156 397.34375 L 722.410156 380.507812 C 722.089844 380.1875 721.644531 380.003906 721.183594 380.003906 L 670.65625 380.003906 L 659.65625 369.035156 C 659.332031 368.707031 658.894531 368.527344 658.429688 368.527344 " fill-opacity="1" fill-rule="nonzero"/></g><g clip-path="url(#ac1fe80fcb)"><path fill="#ff3131" d="M 201.886719 371.992188 L 363.769531 371.992188 L 354.824219 380.886719 L 302.816406 380.886719 C 302.359375 380.886719 301.914062 381.070312 301.589844 381.394531 L 286.109375 396.832031 L 125.734375 396.832031 L 139.132812 383.46875 L 189.667969 383.46875 C 190.132812 383.46875 190.574219 383.28125 190.894531 382.960938 Z M 367.964844 368.527344 L 201.167969 368.527344 C 200.710938 368.527344 200.269531 368.707031 199.945312 369.035156 L 188.949219 380.003906 L 138.414062 380.003906 C 137.953125 380.003906 137.515625 380.1875 137.1875 380.507812 L 120.316406 397.34375 C 119.824219 397.835938 119.671875 398.582031 119.941406 399.230469 C 120.207031 399.875 120.84375 400.296875 121.542969 400.296875 L 286.824219 400.296875 C 287.289062 400.296875 287.730469 400.117188 288.054688 399.789062 L 303.535156 384.347656 L 355.542969 384.347656 C 356.007812 384.347656 356.445312 384.167969 356.769531 383.84375 L 369.191406 371.484375 C 369.6875 370.988281 369.839844 370.246094 369.566406 369.597656 C 369.300781 368.949219 368.667969 368.527344 367.964844 368.527344 " fill-opacity="1" fill-rule="nonzero"/></g></svg>