<svg xmlns="http://www.w3.org/2000/svg" xmlns:xlink="http://www.w3.org/1999/xlink" width="1050" zoomAndPan="magnify" viewBox="0 0 787.5 299.999988" height="400" preserveAspectRatio="xMidYMid meet" version="1.0"><defs><clipPath id="aac82d2b27"><path d="M 5.4375 16.613281 L 782.4375 16.613281 L 782.4375 283.613281 L 5.4375 283.613281 Z M 5.4375 16.613281 " clip-rule="nonzero"/></clipPath><clipPath id="767f3aca18"><path d="M 269.613281 51.371094 L 517.855469 51.371094 L 517.855469 53.34375 L 269.613281 53.34375 Z M 269.613281 51.371094 " clip-rule="nonzero"/></clipPath><clipPath id="7e1daa6fb3"><path d="M 427 30.09375 L 570 30.09375 L 570 49 L 427 49 Z M 427 30.09375 " clip-rule="nonzero"/></clipPath><clipPath id="3ee2b96628"><path d="M 218 30.09375 L 360 30.09375 L 360 49 L 218 49 Z M 218 30.09375 " clip-rule="nonzero"/></clipPath><clipPath id="7e98ba4c66"><path d="M 269.613281 246.839844 L 517.855469 246.839844 L 517.855469 248.816406 L 269.613281 248.816406 Z M 269.613281 246.839844 " clip-rule="nonzero"/></clipPath><clipPath id="f20046e138"><path d="M 427 252 L 570 252 L 570 269.9375 L 427 269.9375 Z M 427 252 " clip-rule="nonzero"/></clipPath><clipPath id="e361b0ad81"><path d="M 218 252 L 360 252 L 360 269.9375 L 218 269.9375 Z M 218 252 " clip-rule="nonzero"/></clipPath></defs><g clip-path="url(#aac82d2b27)"><path fill="#5ce1e6" d="M 5.4375 16.613281 L 5.4375 283.613281 L 782.4375 283.613281 L 782.4375 16.613281 Z M 763.496094 267.863281 L 593.808594 267.863281 L 581.6875 255.746094 L 548.269531 255.746094 L 532.933594 240.417969 L 254.941406 240.417969 L 239.605469 255.746094 L 206.183594 255.746094 L 194.0625 267.863281 L 24.375 267.863281 L 24.375 32.359375 L 194.0625 32.359375 L 206.183594 44.476562 L 239.605469 44.476562 L 254.941406 59.808594 L 532.933594 59.808594 L 548.269531 44.476562 L 581.6875 44.476562 L 593.808594 32.359375 L 763.496094 32.359375 Z M 763.496094 267.863281 " fill-opacity="1" fill-rule="nonzero"/></g><path fill="#ffffff" d="M 416.351562 44.488281 C 415.53125 44.488281 414.867188 43.828125 414.867188 43.015625 C 414.867188 42.199219 415.53125 41.542969 416.351562 41.542969 C 417.167969 41.542969 417.832031 42.199219 417.832031 43.015625 C 417.832031 43.828125 417.167969 44.488281 416.351562 44.488281 " fill-opacity="1" fill-rule="nonzero"/><path fill="#ffffff" d="M 405.042969 44.488281 C 404.222656 44.488281 403.558594 43.828125 403.558594 43.015625 C 403.558594 42.199219 404.222656 41.542969 405.042969 41.542969 C 405.863281 41.542969 406.523438 42.199219 406.523438 43.015625 C 406.523438 43.828125 405.863281 44.488281 405.042969 44.488281 " fill-opacity="1" fill-rule="nonzero"/><path fill="#ffffff" d="M 393.734375 44.488281 C 392.914062 44.488281 392.25 43.828125 392.25 43.015625 C 392.25 42.199219 392.914062 41.542969 393.734375 41.542969 C 394.554688 41.542969 395.214844 42.199219 395.214844 43.015625 C 395.214844 43.828125 394.554688 44.488281 393.734375 44.488281 " fill-opacity="1" fill-rule="nonzero"/><path fill="#ffffff" d="M 382.425781 44.488281 C 381.605469 44.488281 380.945312 43.828125 380.945312 43.015625 C 380.945312 42.199219 381.605469 41.542969 382.425781 41.542969 C 383.242188 41.542969 383.90625 42.199219 383.90625 43.015625 C 383.90625 43.828125 383.242188 44.488281 382.425781 44.488281 " fill-opacity="1" fill-rule="nonzero"/><path fill="#ffffff" d="M 371.117188 44.488281 C 370.296875 44.488281 369.636719 43.828125 369.636719 43.015625 C 369.636719 42.199219 370.296875 41.542969 371.117188 41.542969 C 371.9375 41.542969 372.597656 42.199219 372.597656 43.015625 C 372.597656 43.828125 371.9375 44.488281 371.117188 44.488281 " fill-opacity="1" fill-rule="nonzero"/><g clip-path="url(#767f3aca18)"><path fill="#ffffff" d="M 516.59375 53.355469 L 270.871094 53.355469 C 270.328125 53.355469 269.890625 52.917969 269.890625 52.378906 C 269.890625 51.839844 270.328125 51.402344 270.871094 51.402344 L 516.59375 51.402344 C 517.136719 51.402344 517.578125 51.839844 517.578125 52.378906 C 517.578125 52.917969 517.136719 53.355469 516.59375 53.355469 " fill-opacity="1" fill-rule="nonzero"/></g><path fill="#ffffff" d="M 463.546875 35.378906 L 323.917969 35.378906 C 323.375 35.378906 322.9375 34.941406 322.9375 34.402344 C 322.9375 33.863281 323.375 33.425781 323.917969 33.425781 L 463.546875 33.425781 C 464.09375 33.425781 464.53125 33.863281 464.53125 34.402344 C 464.53125 34.941406 464.09375 35.378906 463.546875 35.378906 " fill-opacity="1" fill-rule="nonzero"/><path fill="#ffffff" d="M 478.148438 44.15625 L 466.828125 44.15625 L 476.6875 33.964844 L 488.003906 33.964844 L 478.148438 44.15625 " fill-opacity="1" fill-rule="nonzero"/><path fill="#ffffff" d="M 491.476562 44.15625 L 480.15625 44.15625 L 490.015625 33.964844 L 501.332031 33.964844 L 491.476562 44.15625 " fill-opacity="1" fill-rule="nonzero"/><path fill="#ffffff" d="M 504.800781 44.15625 L 493.484375 44.15625 L 503.34375 33.964844 L 514.660156 33.964844 L 504.800781 44.15625 " fill-opacity="1" fill-rule="nonzero"/><path fill="#ffffff" d="M 320.640625 44.15625 L 309.316406 44.15625 L 299.460938 33.964844 L 310.78125 33.964844 L 320.640625 44.15625 " fill-opacity="1" fill-rule="nonzero"/><path fill="#ffffff" d="M 307.308594 44.15625 L 295.992188 44.15625 L 286.136719 33.964844 L 297.449219 33.964844 L 307.308594 44.15625 " fill-opacity="1" fill-rule="nonzero"/><path fill="#ffffff" d="M 293.980469 44.15625 L 282.664062 44.15625 L 272.808594 33.964844 L 284.125 33.964844 L 293.980469 44.15625 " fill-opacity="1" fill-rule="nonzero"/><g clip-path="url(#7e1daa6fb3)"><path fill="#ffffff" d="M 431.140625 46.070312 L 522.84375 46.070312 L 529.066406 39.878906 C 529.253906 39.699219 529.503906 39.59375 529.765625 39.59375 L 558.390625 39.59375 L 565.980469 32.050781 L 475.132812 32.050781 L 466.363281 40.765625 C 466.179688 40.945312 465.933594 41.050781 465.667969 41.050781 L 436.203125 41.050781 Z M 523.25 48.023438 L 428.761719 48.023438 C 428.363281 48.023438 428.003906 47.785156 427.851562 47.421875 C 427.703125 47.054688 427.785156 46.632812 428.066406 46.355469 L 435.101562 39.382812 C 435.285156 39.199219 435.539062 39.097656 435.796875 39.097656 L 465.261719 39.097656 L 474.03125 30.382812 C 474.214844 30.199219 474.464844 30.097656 474.722656 30.097656 L 568.355469 30.097656 C 568.753906 30.097656 569.109375 30.335938 569.261719 30.699219 C 569.414062 31.066406 569.328125 31.484375 569.050781 31.765625 L 559.492188 41.261719 C 559.308594 41.445312 559.058594 41.546875 558.796875 41.546875 L 530.171875 41.546875 L 523.941406 47.738281 C 523.761719 47.921875 523.511719 48.023438 523.25 48.023438 " fill-opacity="1" fill-rule="nonzero"/></g><g clip-path="url(#3ee2b96628)"><path fill="#ffffff" d="M 264.625 46.070312 L 356.328125 46.070312 L 351.261719 41.050781 L 321.796875 41.050781 C 321.539062 41.050781 321.285156 40.945312 321.105469 40.765625 L 312.335938 32.050781 L 221.484375 32.050781 L 229.074219 39.59375 L 257.703125 39.59375 C 257.964844 39.59375 258.214844 39.699219 258.398438 39.878906 Z M 358.703125 48.023438 L 264.214844 48.023438 C 263.957031 48.023438 263.707031 47.921875 263.523438 47.738281 L 257.296875 41.546875 L 228.667969 41.546875 C 228.40625 41.546875 228.160156 41.445312 227.972656 41.261719 L 218.414062 31.765625 C 218.136719 31.484375 218.050781 31.066406 218.203125 30.699219 C 218.355469 30.335938 218.714844 30.097656 219.109375 30.097656 L 312.742188 30.097656 C 313.003906 30.097656 313.253906 30.199219 313.4375 30.382812 L 322.207031 39.097656 L 351.667969 39.097656 C 351.929688 39.097656 352.179688 39.199219 352.363281 39.382812 L 359.398438 46.355469 C 359.679688 46.632812 359.765625 47.054688 359.613281 47.421875 C 359.460938 47.785156 359.101562 48.023438 358.703125 48.023438 " fill-opacity="1" fill-rule="nonzero"/></g><path fill="#ffffff" d="M 416.351562 255.695312 C 415.53125 255.695312 414.867188 256.355469 414.867188 257.171875 C 414.867188 257.984375 415.53125 258.640625 416.351562 258.640625 C 417.167969 258.640625 417.832031 257.984375 417.832031 257.171875 C 417.832031 256.355469 417.167969 255.695312 416.351562 255.695312 " fill-opacity="1" fill-rule="nonzero"/><path fill="#ffffff" d="M 405.042969 255.695312 C 404.222656 255.695312 403.558594 256.355469 403.558594 257.171875 C 403.558594 257.984375 404.222656 258.640625 405.042969 258.640625 C 405.863281 258.640625 406.523438 257.984375 406.523438 257.171875 C 406.523438 256.355469 405.863281 255.695312 405.042969 255.695312 " fill-opacity="1" fill-rule="nonzero"/><path fill="#ffffff" d="M 393.734375 255.695312 C 392.914062 255.695312 392.25 256.355469 392.25 257.171875 C 392.25 257.984375 392.914062 258.640625 393.734375 258.640625 C 394.554688 258.640625 395.214844 257.984375 395.214844 257.171875 C 395.214844 256.355469 394.554688 255.695312 393.734375 255.695312 " fill-opacity="1" fill-rule="nonzero"/><path fill="#ffffff" d="M 382.425781 255.695312 C 381.605469 255.695312 380.945312 256.355469 380.945312 257.171875 C 380.945312 257.984375 381.605469 258.640625 382.425781 258.640625 C 383.242188 258.640625 383.90625 257.984375 383.90625 257.171875 C 383.90625 256.355469 383.242188 255.695312 382.425781 255.695312 " fill-opacity="1" fill-rule="nonzero"/><path fill="#ffffff" d="M 371.117188 255.695312 C 370.296875 255.695312 369.636719 256.355469 369.636719 257.171875 C 369.636719 257.984375 370.296875 258.640625 371.117188 258.640625 C 371.9375 258.640625 372.597656 257.984375 372.597656 257.171875 C 372.597656 256.355469 371.9375 255.695312 371.117188 255.695312 " fill-opacity="1" fill-rule="nonzero"/><g clip-path="url(#7e98ba4c66)"><path fill="#ffffff" d="M 516.59375 246.828125 L 270.871094 246.828125 C 270.328125 246.828125 269.890625 247.265625 269.890625 247.804688 C 269.890625 248.34375 270.328125 248.78125 270.871094 248.78125 L 516.59375 248.78125 C 517.136719 248.78125 517.578125 248.34375 517.578125 247.804688 C 517.578125 247.265625 517.136719 246.828125 516.59375 246.828125 " fill-opacity="1" fill-rule="nonzero"/></g><path fill="#ffffff" d="M 463.546875 264.804688 L 323.917969 264.804688 C 323.375 264.804688 322.9375 265.242188 322.9375 265.78125 C 322.9375 266.320312 323.375 266.757812 323.917969 266.757812 L 463.546875 266.757812 C 464.09375 266.757812 464.53125 266.320312 464.53125 265.78125 C 464.53125 265.242188 464.09375 264.804688 463.546875 264.804688 " fill-opacity="1" fill-rule="nonzero"/><path fill="#ffffff" d="M 478.148438 256.027344 L 466.828125 256.027344 L 476.6875 266.222656 L 488.003906 266.222656 L 478.148438 256.027344 " fill-opacity="1" fill-rule="nonzero"/><path fill="#ffffff" d="M 491.476562 256.027344 L 480.15625 256.027344 L 490.015625 266.222656 L 501.332031 266.222656 L 491.476562 256.027344 " fill-opacity="1" fill-rule="nonzero"/><path fill="#ffffff" d="M 504.800781 256.027344 L 493.484375 256.027344 L 503.34375 266.222656 L 514.660156 266.222656 L 504.800781 256.027344 " fill-opacity="1" fill-rule="nonzero"/><path fill="#ffffff" d="M 320.640625 256.027344 L 309.316406 256.027344 L 299.460938 266.222656 L 310.78125 266.222656 L 320.640625 256.027344 " fill-opacity="1" fill-rule="nonzero"/><path fill="#ffffff" d="M 307.308594 256.027344 L 295.992188 256.027344 L 286.136719 266.222656 L 297.449219 266.222656 L 307.308594 256.027344 " fill-opacity="1" fill-rule="nonzero"/><path fill="#ffffff" d="M 293.980469 256.027344 L 282.664062 256.027344 L 272.808594 266.222656 L 284.125 266.222656 L 293.980469 256.027344 " fill-opacity="1" fill-rule="nonzero"/><g clip-path="url(#f20046e138)"><path fill="#ffffff" d="M 431.140625 254.117188 L 522.84375 254.117188 L 529.066406 260.304688 C 529.253906 260.488281 529.503906 260.589844 529.765625 260.589844 L 558.390625 260.589844 L 565.980469 268.132812 L 475.132812 268.132812 L 466.363281 259.421875 C 466.179688 259.238281 465.933594 259.136719 465.667969 259.136719 L 436.203125 259.136719 Z M 523.25 252.160156 L 428.761719 252.160156 C 428.363281 252.160156 428.003906 252.398438 427.851562 252.765625 C 427.703125 253.128906 427.785156 253.550781 428.066406 253.832031 L 435.101562 260.804688 C 435.285156 260.984375 435.539062 261.089844 435.796875 261.089844 L 465.261719 261.089844 L 474.03125 269.800781 C 474.214844 269.984375 474.464844 270.085938 474.722656 270.085938 L 568.355469 270.085938 C 568.753906 270.085938 569.109375 269.847656 569.261719 269.484375 C 569.414062 269.121094 569.328125 268.699219 569.050781 268.417969 L 559.492188 258.921875 C 559.308594 258.738281 559.058594 258.636719 558.796875 258.636719 L 530.171875 258.636719 L 523.941406 252.449219 C 523.761719 252.261719 523.511719 252.160156 523.25 252.160156 " fill-opacity="1" fill-rule="nonzero"/></g><g clip-path="url(#e361b0ad81)"><path fill="#ffffff" d="M 264.625 254.117188 L 356.328125 254.117188 L 351.261719 259.136719 L 321.796875 259.136719 C 321.539062 259.136719 321.285156 259.238281 321.105469 259.421875 L 312.335938 268.132812 L 221.484375 268.132812 L 229.074219 260.589844 L 257.703125 260.589844 C 257.964844 260.589844 258.214844 260.488281 258.398438 260.304688 Z M 358.703125 252.160156 L 264.214844 252.160156 C 263.957031 252.160156 263.707031 252.261719 263.523438 252.449219 L 257.296875 258.636719 L 228.667969 258.636719 C 228.40625 258.636719 228.160156 258.738281 227.972656 258.921875 L 218.414062 268.417969 C 218.136719 268.699219 218.050781 269.121094 218.203125 269.484375 C 218.355469 269.847656 218.714844 270.085938 219.109375 270.085938 L 312.742188 270.085938 C 313.003906 270.085938 313.253906 269.984375 313.4375 269.800781 L 322.207031 261.089844 L 351.667969 261.089844 C 351.929688 261.089844 352.179688 260.984375 352.363281 260.804688 L 359.398438 253.832031 C 359.679688 253.550781 359.765625 253.128906 359.613281 252.765625 C 359.460938 252.398438 359.101562 252.160156 358.703125 252.160156 " fill-opacity="1" fill-rule="nonzero"/></g></svg>