<svg xmlns="http://www.w3.org/2000/svg" xmlns:xlink="http://www.w3.org/1999/xlink" width="1146" zoomAndPan="magnify" viewBox="0 0 859.5 482.999988" height="644" preserveAspectRatio="xMidYMid meet" version="1.0"><defs><g/><clipPath id="2f1aa122cb"><path d="M 197 125.90625 L 635 125.90625 L 635 129.429688 L 197 129.429688 Z M 197 125.90625 " clip-rule="nonzero"/></clipPath><clipPath id="75f1b4126a"><path d="M 476 88.179688 L 726.09375 88.179688 L 726.09375 120 L 476 120 Z M 476 88.179688 " clip-rule="nonzero"/></clipPath><clipPath id="cf6618c50e"><path d="M 106 88.179688 L 356 88.179688 L 356 120 L 106 120 Z M 106 88.179688 " clip-rule="nonzero"/></clipPath><clipPath id="d27581caa2"><path d="M 197 359.074219 L 635 359.074219 L 635 362.597656 L 197 362.597656 Z M 197 359.074219 " clip-rule="nonzero"/></clipPath><clipPath id="60378d8a01"><path d="M 476 368 L 726.09375 368 L 726.09375 400.230469 L 476 400.230469 Z M 476 368 " clip-rule="nonzero"/></clipPath><clipPath id="7f13b7c6d7"><path d="M 106 368 L 356 368 L 356 400.230469 L 106 400.230469 Z M 106 368 " clip-rule="nonzero"/></clipPath></defs><path fill="#98feff" d="M 455.941406 113.710938 C 454.496094 113.710938 453.320312 112.539062 453.320312 111.097656 C 453.320312 109.65625 454.496094 108.488281 455.941406 108.488281 C 457.382812 108.488281 458.554688 109.65625 458.554688 111.097656 C 458.554688 112.539062 457.382812 113.710938 455.941406 113.710938 " fill-opacity="1" fill-rule="nonzero"/><path fill="#71fdff" d="M 435.980469 113.710938 C 434.53125 113.710938 433.355469 112.539062 433.355469 111.097656 C 433.355469 109.65625 434.53125 108.488281 435.980469 108.488281 C 437.421875 108.488281 438.59375 109.65625 438.59375 111.097656 C 438.59375 112.539062 437.421875 113.710938 435.980469 113.710938 " fill-opacity="1" fill-rule="nonzero"/><path fill="#51fdff" d="M 416.015625 113.710938 C 414.570312 113.710938 413.398438 112.539062 413.398438 111.097656 C 413.398438 109.65625 414.570312 108.488281 416.015625 108.488281 C 417.460938 108.488281 418.628906 109.65625 418.628906 111.097656 C 418.628906 112.539062 417.460938 113.710938 416.015625 113.710938 " fill-opacity="1" fill-rule="nonzero"/><path fill="#71fdff" d="M 396.050781 113.710938 C 394.609375 113.710938 393.4375 112.539062 393.4375 111.097656 C 393.4375 109.65625 394.609375 108.488281 396.050781 108.488281 C 397.496094 108.488281 398.667969 109.65625 398.667969 111.097656 C 398.667969 112.539062 397.496094 113.710938 396.050781 113.710938 " fill-opacity="1" fill-rule="nonzero"/><path fill="#98feff" d="M 376.089844 113.710938 C 374.644531 113.710938 373.476562 112.539062 373.476562 111.097656 C 373.476562 109.65625 374.644531 108.488281 376.089844 108.488281 C 377.535156 108.488281 378.707031 109.65625 378.707031 111.097656 C 378.707031 112.539062 377.535156 113.710938 376.089844 113.710938 " fill-opacity="1" fill-rule="nonzero"/><g clip-path="url(#2f1aa122cb)"><path fill="#71fdff" d="M 632.894531 129.429688 L 199.132812 129.429688 C 198.167969 129.429688 197.394531 128.652344 197.394531 127.695312 C 197.394531 126.738281 198.167969 125.964844 199.132812 125.964844 L 632.894531 125.964844 C 633.855469 125.964844 634.636719 126.738281 634.636719 127.695312 C 634.636719 128.652344 633.855469 129.429688 632.894531 129.429688 " fill-opacity="1" fill-rule="nonzero"/></g><path fill="#71fdff" d="M 539.253906 97.566406 L 292.769531 97.566406 C 291.8125 97.566406 291.035156 96.792969 291.035156 95.835938 C 291.035156 94.878906 291.8125 94.101562 292.769531 94.101562 L 539.253906 94.101562 C 540.21875 94.101562 540.992188 94.878906 540.992188 95.835938 C 540.992188 96.792969 540.21875 97.566406 539.253906 97.566406 " fill-opacity="1" fill-rule="nonzero"/><path fill="#71fdff" d="M 565.03125 113.125 L 545.046875 113.125 L 562.449219 95.058594 L 582.425781 95.058594 L 565.03125 113.125 " fill-opacity="1" fill-rule="nonzero"/><path fill="#98feff" d="M 588.554688 113.125 L 568.574219 113.125 L 585.976562 95.058594 L 605.957031 95.058594 L 588.554688 113.125 " fill-opacity="1" fill-rule="nonzero"/><path fill="#c1feff" d="M 612.082031 113.125 L 592.105469 113.125 L 609.503906 95.058594 L 629.484375 95.058594 L 612.082031 113.125 " fill-opacity="1" fill-rule="nonzero"/><path fill="#71fdff" d="M 286.984375 113.125 L 266.996094 113.125 L 249.597656 95.058594 L 269.582031 95.058594 L 286.984375 113.125 " fill-opacity="1" fill-rule="nonzero"/><path fill="#98feff" d="M 263.449219 113.125 L 243.476562 113.125 L 226.074219 95.058594 L 246.046875 95.058594 L 263.449219 113.125 " fill-opacity="1" fill-rule="nonzero"/><path fill="#c1feff" d="M 239.925781 113.125 L 219.945312 113.125 L 202.546875 95.058594 L 222.523438 95.058594 L 239.925781 113.125 " fill-opacity="1" fill-rule="nonzero"/><g clip-path="url(#75f1b4126a)"><path fill="#33fcff" d="M 482.050781 116.511719 L 643.925781 116.511719 L 654.917969 105.542969 C 655.246094 105.21875 655.6875 105.035156 656.148438 105.035156 L 706.679688 105.035156 L 720.078125 91.667969 L 559.703125 91.667969 L 544.226562 107.109375 C 543.90625 107.433594 543.464844 107.617188 543 107.617188 L 490.988281 107.617188 Z M 644.644531 119.976562 L 477.847656 119.976562 C 477.144531 119.976562 476.507812 119.554688 476.242188 118.90625 C 475.980469 118.257812 476.125 117.515625 476.617188 117.019531 L 489.039062 104.660156 C 489.367188 104.335938 489.808594 104.15625 490.265625 104.15625 L 542.285156 104.15625 L 557.761719 88.714844 C 558.085938 88.386719 558.527344 88.203125 558.984375 88.203125 L 724.265625 88.203125 C 724.972656 88.203125 725.601562 88.628906 725.871094 89.273438 C 726.140625 89.917969 725.988281 90.667969 725.496094 91.160156 L 708.625 107.996094 C 708.300781 108.316406 707.859375 108.5 707.398438 108.5 L 656.867188 108.5 L 645.871094 119.46875 C 645.546875 119.796875 645.105469 119.976562 644.644531 119.976562 " fill-opacity="1" fill-rule="nonzero"/></g><g clip-path="url(#cf6618c50e)"><path fill="#33fcff" d="M 188.101562 116.511719 L 349.980469 116.511719 L 341.039062 107.617188 L 289.03125 107.617188 C 288.574219 107.617188 288.125 107.433594 287.800781 107.109375 L 272.324219 91.667969 L 111.949219 91.667969 L 125.34375 105.035156 L 175.882812 105.035156 C 176.347656 105.035156 176.785156 105.21875 177.109375 105.542969 Z M 354.179688 119.976562 L 187.378906 119.976562 C 186.921875 119.976562 186.484375 119.796875 186.15625 119.46875 L 175.164062 108.5 L 124.628906 108.5 C 124.167969 108.5 123.730469 108.316406 123.402344 107.996094 L 106.53125 91.160156 C 106.039062 90.667969 105.886719 89.917969 106.152344 89.273438 C 106.421875 88.628906 107.058594 88.203125 107.757812 88.203125 L 273.039062 88.203125 C 273.503906 88.203125 273.941406 88.386719 274.269531 88.714844 L 289.75 104.15625 L 341.757812 104.15625 C 342.222656 104.15625 342.660156 104.335938 342.984375 104.660156 L 355.40625 117.019531 C 355.902344 117.515625 356.050781 118.257812 355.78125 118.90625 C 355.515625 119.554688 354.882812 119.976562 354.179688 119.976562 " fill-opacity="1" fill-rule="nonzero"/></g><g fill="#ffffff" fill-opacity="1"><g transform="translate(88.27733, 255.341653)"><g><path d="M 28.1875 -33.449219 C 28.09375 -33.679688 28.003906 -33.953125 27.914062 -34.136719 C 27.179688 -36.515625 24.984375 -38.207031 22.46875 -38.207031 C 21.324219 -38.207031 20.226562 -37.886719 19.308594 -37.246094 C 19.035156 -37.109375 18.804688 -36.925781 18.625 -36.789062 C 17.9375 -36.195312 17.25 -35.097656 16.609375 -33.449219 L 3.84375 -1.738281 C 3.707031 -1.328125 3.660156 -0.914062 3.753906 -0.640625 C 3.796875 -0.367188 4.027344 0.046875 4.757812 0.046875 L 9.792969 0.046875 C 10.386719 0.046875 10.84375 -0.320312 11.074219 -0.914062 L 13.683594 -7.457031 L 23.703125 -7.457031 C 24.207031 -7.457031 24.664062 -7.6875 24.890625 -8.097656 C 25.167969 -8.464844 25.210938 -8.96875 25.074219 -9.425781 L 23.429688 -13.5 C 23.199219 -14.046875 22.695312 -14.414062 22.101562 -14.414062 L 16.425781 -14.414062 L 22.285156 -29.238281 C 22.328125 -29.332031 22.375 -29.375 22.375 -29.375 L 22.558594 -29.375 C 22.558594 -29.375 22.558594 -29.375 22.605469 -29.285156 L 33.953125 -0.960938 C 34.179688 -0.320312 34.640625 0.046875 35.28125 0.046875 L 40.175781 0.046875 C 40.90625 0.046875 41.089844 -0.410156 41.183594 -0.640625 C 41.273438 -0.914062 41.226562 -1.328125 41.046875 -1.738281 Z M 28.1875 -33.449219 "/></g></g></g><g fill="#ffffff" fill-opacity="1"><g transform="translate(135.498394, 255.341653)"><g><path d="M 9.152344 -37.703125 L 4.941406 -37.703125 C 4.574219 -37.703125 3.660156 -37.523438 3.660156 -36.101562 L 3.660156 -1.554688 C 3.660156 -0.136719 4.574219 0.046875 4.941406 0.046875 L 9.152344 0.046875 C 9.519531 0.046875 10.433594 -0.136719 10.433594 -1.554688 L 10.433594 -36.101562 C 10.433594 -37.523438 9.519531 -37.703125 9.152344 -37.703125 Z M 9.152344 -37.703125 "/></g></g></g><g fill="#ffffff" fill-opacity="1"><g transform="translate(151.879344, 255.341653)"><g/></g></g><g fill="#ffffff" fill-opacity="1"><g transform="translate(177.686211, 255.341653)"><g><path d="M 40.128906 -38.207031 L 35.097656 -38.207031 C 34.5 -38.207031 34.042969 -37.886719 33.769531 -37.246094 L 22.558594 -8.921875 C 22.558594 -8.832031 22.511719 -8.832031 22.511719 -8.832031 L 22.328125 -8.785156 C 22.328125 -8.785156 22.328125 -8.832031 22.285156 -8.921875 L 10.890625 -37.246094 C 10.707031 -37.886719 10.25 -38.207031 9.609375 -38.207031 L 4.667969 -38.207031 C 3.980469 -38.207031 3.753906 -37.75 3.707031 -37.566406 C 3.613281 -37.246094 3.660156 -36.882812 3.84375 -36.421875 L 16.65625 -4.757812 C 16.792969 -4.484375 16.882812 -4.253906 16.976562 -4.074219 C 17.664062 -1.648438 19.90625 0.046875 22.421875 0.046875 C 23.566406 0.046875 24.664062 -0.320312 25.578125 -0.960938 C 25.851562 -1.097656 26.082031 -1.234375 26.265625 -1.417969 C 26.953125 -2.011719 27.59375 -3.113281 28.277344 -4.757812 L 41 -36.421875 C 41.183594 -36.882812 41.226562 -37.246094 41.136719 -37.566406 C 41.046875 -37.796875 40.816406 -38.207031 40.128906 -38.207031 Z M 40.128906 -38.207031 "/></g></g></g><g fill="#ffffff" fill-opacity="1"><g transform="translate(224.815763, 255.341653)"><g><path d="M 34.820312 -34.363281 C 33.90625 -35.507812 32.71875 -36.378906 31.253906 -36.925781 C 29.835938 -37.429688 28.09375 -37.703125 26.082031 -37.703125 L 14.917969 -37.703125 C 12.902344 -37.703125 11.210938 -37.429688 9.792969 -36.925781 C 8.328125 -36.378906 7.136719 -35.507812 6.222656 -34.363281 C 5.355469 -33.21875 4.667969 -31.710938 4.253906 -29.878906 C 3.84375 -28.09375 3.660156 -25.945312 3.660156 -23.382812 L 3.660156 -14.324219 C 3.660156 -11.761719 3.84375 -9.5625 4.253906 -7.777344 C 4.667969 -5.949219 5.355469 -4.4375 6.222656 -3.292969 C 7.136719 -2.105469 8.328125 -1.234375 9.792969 -0.730469 C 11.164062 -0.230469 12.902344 0.046875 14.917969 0.046875 L 26.082031 0.046875 C 28.09375 0.046875 29.835938 -0.230469 31.253906 -0.730469 C 32.71875 -1.234375 33.90625 -2.105469 34.820312 -3.25 C 35.738281 -4.4375 36.378906 -5.949219 36.789062 -7.777344 C 37.15625 -9.5625 37.382812 -11.761719 37.382812 -14.324219 L 37.382812 -23.382812 C 37.382812 -25.898438 37.15625 -28.09375 36.789062 -29.878906 C 36.378906 -31.710938 35.738281 -33.21875 34.820312 -34.363281 Z M 30.566406 -24.160156 L 30.566406 -13.5 C 30.566406 -12.171875 30.519531 -11.027344 30.335938 -10.113281 C 30.199219 -9.289062 29.925781 -8.558594 29.558594 -8.097656 C 29.238281 -7.597656 28.78125 -7.277344 28.1875 -7.09375 C 27.59375 -6.863281 26.8125 -6.773438 25.851562 -6.773438 L 15.144531 -6.773438 C 14.183594 -6.773438 13.40625 -6.863281 12.8125 -7.09375 C 12.21875 -7.277344 11.761719 -7.597656 11.441406 -8.097656 C 11.074219 -8.558594 10.84375 -9.289062 10.660156 -10.113281 C 10.523438 -11.027344 10.433594 -12.171875 10.433594 -13.5 L 10.433594 -24.160156 C 10.433594 -25.488281 10.523438 -26.632812 10.660156 -27.546875 C 10.84375 -28.414062 11.074219 -29.101562 11.441406 -29.605469 C 11.761719 -30.0625 12.21875 -30.382812 12.8125 -30.613281 C 13.40625 -30.796875 14.183594 -30.933594 15.144531 -30.933594 L 25.851562 -30.933594 C 26.8125 -30.933594 27.59375 -30.796875 28.1875 -30.613281 C 28.78125 -30.382812 29.238281 -30.0625 29.558594 -29.605469 C 29.925781 -29.101562 30.199219 -28.414062 30.335938 -27.546875 C 30.519531 -26.632812 30.566406 -25.488281 30.566406 -24.160156 Z M 30.566406 -24.160156 "/></g></g></g><g fill="#ffffff" fill-opacity="1"><g transform="translate(268.147513, 255.341653)"><g><path d="M 9.152344 -37.703125 L 4.941406 -37.703125 C 4.574219 -37.703125 3.660156 -37.523438 3.660156 -36.101562 L 3.660156 -1.554688 C 3.660156 -0.136719 4.574219 0.046875 4.941406 0.046875 L 9.152344 0.046875 C 9.519531 0.046875 10.433594 -0.136719 10.433594 -1.554688 L 10.433594 -36.101562 C 10.433594 -37.523438 9.519531 -37.703125 9.152344 -37.703125 Z M 9.152344 -37.703125 "/></g></g></g><g fill="#ffffff" fill-opacity="1"><g transform="translate(284.528474, 255.341653)"><g><path d="M 31.617188 -37.703125 L 14.964844 -37.703125 C 12.949219 -37.703125 11.210938 -37.429688 9.792969 -36.925781 C 8.328125 -36.378906 7.136719 -35.507812 6.269531 -34.363281 C 5.355469 -33.21875 4.667969 -31.710938 4.253906 -29.878906 C 3.84375 -28.09375 3.660156 -25.898438 3.660156 -23.382812 L 3.660156 -14.324219 C 3.660156 -11.761719 3.84375 -9.5625 4.253906 -7.734375 C 4.667969 -5.949219 5.355469 -4.4375 6.269531 -3.25 C 7.183594 -2.105469 8.375 -1.234375 9.792969 -0.730469 C 11.210938 -0.230469 12.949219 0.046875 14.964844 0.046875 L 31.617188 0.046875 C 31.984375 0.046875 32.898438 -0.136719 32.898438 -1.554688 L 32.898438 -5.171875 C 32.898438 -6.589844 31.984375 -6.773438 31.617188 -6.773438 L 15.191406 -6.773438 C 14.230469 -6.773438 13.40625 -6.863281 12.8125 -7.09375 C 12.21875 -7.277344 11.804688 -7.597656 11.441406 -8.097656 C 11.074219 -8.558594 10.84375 -9.242188 10.660156 -10.113281 C 10.523438 -11.027344 10.433594 -12.171875 10.433594 -13.542969 L 10.433594 -24.207031 C 10.433594 -25.578125 10.523438 -26.722656 10.660156 -27.59375 C 10.84375 -28.460938 11.074219 -29.101562 11.441406 -29.605469 C 11.804688 -30.109375 12.21875 -30.429688 12.8125 -30.613281 C 13.40625 -30.839844 14.230469 -30.933594 15.191406 -30.933594 L 31.617188 -30.933594 C 31.984375 -30.933594 32.898438 -31.117188 32.898438 -32.578125 L 32.898438 -36.101562 C 32.898438 -37.523438 31.984375 -37.703125 31.617188 -37.703125 Z M 31.617188 -37.703125 "/></g></g></g><g fill="#ffffff" fill-opacity="1"><g transform="translate(323.376053, 255.341653)"><g><path d="M 31.160156 -8.191406 L 15.054688 -8.191406 C 14.09375 -8.191406 13.316406 -8.328125 12.675781 -8.511719 C 12.082031 -8.738281 11.667969 -9.058594 11.300781 -9.519531 C 10.9375 -10.019531 10.660156 -10.707031 10.523438 -11.578125 C 10.480469 -11.804688 10.480469 -12.125 10.433594 -12.355469 C 10.433594 -12.355469 10.480469 -15.648438 10.523438 -15.648438 L 30.976562 -15.648438 C 31.34375 -15.648438 32.257812 -15.832031 32.257812 -17.25 L 32.257812 -20.867188 C 32.257812 -22.285156 31.34375 -22.421875 30.976562 -22.421875 L 7.367188 -22.375 C 6.039062 -22.285156 4.894531 -21.597656 4.253906 -20.453125 C 4.027344 -20.085938 3.84375 -19.722656 3.753906 -19.308594 L 3.660156 -13.542969 L 3.660156 -13.316406 C 3.707031 -11.164062 3.933594 -9.335938 4.253906 -7.824219 C 4.667969 -5.996094 5.355469 -4.484375 6.222656 -3.339844 C 7.136719 -2.152344 8.328125 -1.328125 9.792969 -0.824219 C 11.210938 -0.273438 12.902344 -0.046875 14.917969 -0.046875 L 31.160156 -0.046875 C 31.574219 -0.046875 32.488281 -0.183594 32.488281 -1.601562 L 32.488281 -6.636719 C 32.488281 -8.054688 31.574219 -8.191406 31.160156 -8.191406 Z M 31.207031 -37.796875 L 4.894531 -37.796875 C 4.53125 -37.796875 3.660156 -37.613281 3.660156 -36.148438 L 3.660156 -32.578125 C 3.660156 -31.160156 4.53125 -31.023438 4.894531 -31.023438 L 31.207031 -30.976562 C 31.574219 -30.976562 32.488281 -31.160156 32.488281 -32.578125 L 32.488281 -36.195312 C 32.488281 -37.613281 31.574219 -37.796875 31.207031 -37.796875 Z M 31.207031 -37.796875 "/></g></g></g><g fill="#ffffff" fill-opacity="1"><g transform="translate(361.811804, 255.341653)"><g/></g></g><g fill="#ffffff" fill-opacity="1"><g transform="translate(387.618671, 255.341653)"><g><path d="M 28.1875 -33.449219 C 28.09375 -33.679688 28.003906 -33.953125 27.914062 -34.136719 C 27.179688 -36.515625 24.984375 -38.207031 22.46875 -38.207031 C 21.324219 -38.207031 20.226562 -37.886719 19.308594 -37.246094 C 19.035156 -37.109375 18.804688 -36.925781 18.625 -36.789062 C 17.9375 -36.195312 17.25 -35.097656 16.609375 -33.449219 L 3.84375 -1.738281 C 3.707031 -1.328125 3.660156 -0.914062 3.753906 -0.640625 C 3.796875 -0.367188 4.027344 0.046875 4.757812 0.046875 L 9.792969 0.046875 C 10.386719 0.046875 10.84375 -0.320312 11.074219 -0.914062 L 13.683594 -7.457031 L 23.703125 -7.457031 C 24.207031 -7.457031 24.664062 -7.6875 24.890625 -8.097656 C 25.167969 -8.464844 25.210938 -8.96875 25.074219 -9.425781 L 23.429688 -13.5 C 23.199219 -14.046875 22.695312 -14.414062 22.101562 -14.414062 L 16.425781 -14.414062 L 22.285156 -29.238281 C 22.328125 -29.332031 22.375 -29.375 22.375 -29.375 L 22.558594 -29.375 C 22.558594 -29.375 22.558594 -29.375 22.605469 -29.285156 L 33.953125 -0.960938 C 34.179688 -0.320312 34.640625 0.046875 35.28125 0.046875 L 40.175781 0.046875 C 40.90625 0.046875 41.089844 -0.410156 41.183594 -0.640625 C 41.273438 -0.914062 41.226562 -1.328125 41.046875 -1.738281 Z M 28.1875 -33.449219 "/></g></g></g><g fill="#ffffff" fill-opacity="1"><g transform="translate(434.839735, 255.341653)"><g><path d="M 25.761719 -22.511719 L 12.035156 -22.511719 C 11.347656 -22.511719 10.480469 -22.789062 10.480469 -25.03125 L 10.480469 -28.414062 C 10.480469 -29.238281 10.617188 -29.878906 10.84375 -30.335938 C 11.027344 -30.613281 11.300781 -30.933594 12.082031 -30.933594 L 30.703125 -30.933594 C 31.070312 -30.933594 31.984375 -31.070312 31.984375 -32.488281 L 31.984375 -36.148438 C 31.984375 -37.566406 31.070312 -37.703125 30.703125 -37.703125 L 10.980469 -37.703125 C 8.464844 -37.703125 6.636719 -36.882812 5.445312 -35.1875 C 4.253906 -33.539062 3.660156 -31.34375 3.660156 -28.691406 L 3.660156 -25.210938 C 3.660156 -22.054688 4.300781 -19.492188 5.445312 -17.890625 C 6.863281 -16.015625 8.96875 -15.742188 10.890625 -15.742188 L 24.617188 -15.742188 C 25.304688 -15.742188 26.21875 -15.464844 26.21875 -13.222656 L 26.21875 -9.289062 C 26.21875 -8.464844 26.082031 -7.824219 25.808594 -7.367188 C 25.625 -7.09375 25.351562 -6.773438 24.570312 -6.773438 L 5.035156 -6.773438 C 4.621094 -6.773438 3.707031 -6.636719 3.707031 -5.214844 L 3.707031 -1.554688 C 3.707031 -0.136719 4.621094 0 5.035156 0 L 25.671875 0 C 28.1875 0 30.0625 -0.871094 31.253906 -2.5625 C 32.398438 -4.210938 32.992188 -6.359375 32.992188 -9.015625 L 32.992188 -13.042969 C 32.992188 -16.015625 32.398438 -18.347656 31.207031 -19.996094 C 29.972656 -21.644531 28.140625 -22.511719 25.761719 -22.511719 Z M 25.761719 -22.511719 "/></g></g></g><g fill="#ffffff" fill-opacity="1"><g transform="translate(473.778828, 255.341653)"><g><path d="M 25.761719 -22.511719 L 12.035156 -22.511719 C 11.347656 -22.511719 10.480469 -22.789062 10.480469 -25.03125 L 10.480469 -28.414062 C 10.480469 -29.238281 10.617188 -29.878906 10.84375 -30.335938 C 11.027344 -30.613281 11.300781 -30.933594 12.082031 -30.933594 L 30.703125 -30.933594 C 31.070312 -30.933594 31.984375 -31.070312 31.984375 -32.488281 L 31.984375 -36.148438 C 31.984375 -37.566406 31.070312 -37.703125 30.703125 -37.703125 L 10.980469 -37.703125 C 8.464844 -37.703125 6.636719 -36.882812 5.445312 -35.1875 C 4.253906 -33.539062 3.660156 -31.34375 3.660156 -28.691406 L 3.660156 -25.210938 C 3.660156 -22.054688 4.300781 -19.492188 5.445312 -17.890625 C 6.863281 -16.015625 8.96875 -15.742188 10.890625 -15.742188 L 24.617188 -15.742188 C 25.304688 -15.742188 26.21875 -15.464844 26.21875 -13.222656 L 26.21875 -9.289062 C 26.21875 -8.464844 26.082031 -7.824219 25.808594 -7.367188 C 25.625 -7.09375 25.351562 -6.773438 24.570312 -6.773438 L 5.035156 -6.773438 C 4.621094 -6.773438 3.707031 -6.636719 3.707031 -5.214844 L 3.707031 -1.554688 C 3.707031 -0.136719 4.621094 0 5.035156 0 L 25.671875 0 C 28.1875 0 30.0625 -0.871094 31.253906 -2.5625 C 32.398438 -4.210938 32.992188 -6.359375 32.992188 -9.015625 L 32.992188 -13.042969 C 32.992188 -16.015625 32.398438 -18.347656 31.207031 -19.996094 C 29.972656 -21.644531 28.140625 -22.511719 25.761719 -22.511719 Z M 25.761719 -22.511719 "/></g></g></g><g fill="#ffffff" fill-opacity="1"><g transform="translate(512.717921, 255.341653)"><g><path d="M 9.152344 -37.703125 L 4.941406 -37.703125 C 4.574219 -37.703125 3.660156 -37.523438 3.660156 -36.101562 L 3.660156 -1.554688 C 3.660156 -0.136719 4.574219 0.046875 4.941406 0.046875 L 9.152344 0.046875 C 9.519531 0.046875 10.433594 -0.136719 10.433594 -1.554688 L 10.433594 -36.101562 C 10.433594 -37.523438 9.519531 -37.703125 9.152344 -37.703125 Z M 9.152344 -37.703125 "/></g></g></g><g fill="#ffffff" fill-opacity="1"><g transform="translate(529.098881, 255.341653)"><g><path d="M 25.761719 -22.511719 L 12.035156 -22.511719 C 11.347656 -22.511719 10.480469 -22.789062 10.480469 -25.03125 L 10.480469 -28.414062 C 10.480469 -29.238281 10.617188 -29.878906 10.84375 -30.335938 C 11.027344 -30.613281 11.300781 -30.933594 12.082031 -30.933594 L 30.703125 -30.933594 C 31.070312 -30.933594 31.984375 -31.070312 31.984375 -32.488281 L 31.984375 -36.148438 C 31.984375 -37.566406 31.070312 -37.703125 30.703125 -37.703125 L 10.980469 -37.703125 C 8.464844 -37.703125 6.636719 -36.882812 5.445312 -35.1875 C 4.253906 -33.539062 3.660156 -31.34375 3.660156 -28.691406 L 3.660156 -25.210938 C 3.660156 -22.054688 4.300781 -19.492188 5.445312 -17.890625 C 6.863281 -16.015625 8.96875 -15.742188 10.890625 -15.742188 L 24.617188 -15.742188 C 25.304688 -15.742188 26.21875 -15.464844 26.21875 -13.222656 L 26.21875 -9.289062 C 26.21875 -8.464844 26.082031 -7.824219 25.808594 -7.367188 C 25.625 -7.09375 25.351562 -6.773438 24.570312 -6.773438 L 5.035156 -6.773438 C 4.621094 -6.773438 3.707031 -6.636719 3.707031 -5.214844 L 3.707031 -1.554688 C 3.707031 -0.136719 4.621094 0 5.035156 0 L 25.671875 0 C 28.1875 0 30.0625 -0.871094 31.253906 -2.5625 C 32.398438 -4.210938 32.992188 -6.359375 32.992188 -9.015625 L 32.992188 -13.042969 C 32.992188 -16.015625 32.398438 -18.347656 31.207031 -19.996094 C 29.972656 -21.644531 28.140625 -22.511719 25.761719 -22.511719 Z M 25.761719 -22.511719 "/></g></g></g><g fill="#ffffff" fill-opacity="1"><g transform="translate(568.037974, 255.341653)"><g><path d="M 35.28125 -37.703125 L 4.988281 -37.703125 C 4.574219 -37.703125 3.660156 -37.566406 3.660156 -36.148438 L 3.660156 -32.578125 C 3.660156 -31.070312 4.574219 -30.933594 4.988281 -30.933594 L 16.746094 -30.933594 L 16.746094 -1.554688 C 16.746094 -0.136719 17.664062 0 18.027344 0 L 22.238281 0 C 22.648438 0 23.519531 -0.136719 23.519531 -1.554688 L 23.519531 -30.933594 L 35.28125 -30.933594 C 35.691406 -30.933594 36.605469 -31.070312 36.605469 -32.578125 L 36.605469 -36.148438 C 36.605469 -37.566406 35.691406 -37.703125 35.28125 -37.703125 Z M 35.28125 -37.703125 "/></g></g></g><g fill="#ffffff" fill-opacity="1"><g transform="translate(610.591832, 255.341653)"><g><path d="M 28.1875 -33.449219 C 28.09375 -33.679688 28.003906 -33.953125 27.914062 -34.136719 C 27.179688 -36.515625 24.984375 -38.207031 22.46875 -38.207031 C 21.324219 -38.207031 20.226562 -37.886719 19.308594 -37.246094 C 19.035156 -37.109375 18.804688 -36.925781 18.625 -36.789062 C 17.9375 -36.195312 17.25 -35.097656 16.609375 -33.449219 L 3.84375 -1.738281 C 3.707031 -1.328125 3.660156 -0.914062 3.753906 -0.640625 C 3.796875 -0.367188 4.027344 0.046875 4.757812 0.046875 L 9.792969 0.046875 C 10.386719 0.046875 10.84375 -0.320312 11.074219 -0.914062 L 13.683594 -7.457031 L 23.703125 -7.457031 C 24.207031 -7.457031 24.664062 -7.6875 24.890625 -8.097656 C 25.167969 -8.464844 25.210938 -8.96875 25.074219 -9.425781 L 23.429688 -13.5 C 23.199219 -14.046875 22.695312 -14.414062 22.101562 -14.414062 L 16.425781 -14.414062 L 22.285156 -29.238281 C 22.328125 -29.332031 22.375 -29.375 22.375 -29.375 L 22.558594 -29.375 C 22.558594 -29.375 22.558594 -29.375 22.605469 -29.285156 L 33.953125 -0.960938 C 34.179688 -0.320312 34.640625 0.046875 35.28125 0.046875 L 40.175781 0.046875 C 40.90625 0.046875 41.089844 -0.410156 41.183594 -0.640625 C 41.273438 -0.914062 41.226562 -1.328125 41.046875 -1.738281 Z M 28.1875 -33.449219 "/></g></g></g><g fill="#ffffff" fill-opacity="1"><g transform="translate(657.812897, 255.341653)"><g><path d="M 36.058594 -37.703125 L 31.984375 -37.703125 C 31.574219 -37.703125 30.703125 -37.566406 30.703125 -36.101562 L 30.703125 -8.601562 C 30.703125 -8.558594 30.703125 -8.558594 30.703125 -8.511719 L 30.476562 -8.511719 C 30.429688 -8.511719 30.382812 -8.511719 30.335938 -8.648438 L 15.878906 -34.363281 C 15.511719 -35.050781 15.191406 -35.601562 14.871094 -36.011719 C 14.550781 -36.46875 14.230469 -36.835938 13.910156 -37.0625 C 13.542969 -37.339844 13.132812 -37.523438 12.628906 -37.613281 C 12.171875 -37.660156 11.621094 -37.703125 11.027344 -37.703125 L 7.597656 -37.703125 C 6.269531 -37.703125 5.261719 -37.246094 4.621094 -36.421875 C 3.980469 -35.554688 3.660156 -34.042969 3.660156 -31.800781 L 3.660156 -1.554688 C 3.660156 -0.136719 4.574219 0.046875 4.988281 0.046875 L 9.058594 0.046875 C 9.472656 0.046875 10.339844 -0.136719 10.339844 -1.554688 L 10.339844 -29.054688 C 10.339844 -29.101562 10.339844 -29.148438 10.339844 -29.148438 L 10.570312 -29.148438 C 10.570312 -29.148438 10.617188 -29.148438 10.707031 -29.011719 L 25.210938 -3.292969 C 25.578125 -2.5625 25.945312 -2.011719 26.265625 -1.601562 C 26.585938 -1.144531 26.90625 -0.824219 27.273438 -0.59375 C 27.636719 -0.320312 28.050781 -0.183594 28.507812 -0.0898438 C 28.917969 0 29.421875 0.046875 30.0625 0.046875 L 33.402344 0.046875 C 34.730469 0.046875 35.738281 -0.410156 36.378906 -1.28125 C 37.019531 -2.105469 37.339844 -3.613281 37.339844 -5.855469 L 37.339844 -36.101562 C 37.339844 -37.566406 36.421875 -37.703125 36.058594 -37.703125 Z M 36.058594 -37.703125 "/></g></g></g><g fill="#ffffff" fill-opacity="1"><g transform="translate(701.098901, 255.341653)"><g><path d="M 35.28125 -37.703125 L 4.988281 -37.703125 C 4.574219 -37.703125 3.660156 -37.566406 3.660156 -36.148438 L 3.660156 -32.578125 C 3.660156 -31.070312 4.574219 -30.933594 4.988281 -30.933594 L 16.746094 -30.933594 L 16.746094 -1.554688 C 16.746094 -0.136719 17.664062 0 18.027344 0 L 22.238281 0 C 22.648438 0 23.519531 -0.136719 23.519531 -1.554688 L 23.519531 -30.933594 L 35.28125 -30.933594 C 35.691406 -30.933594 36.605469 -31.070312 36.605469 -32.578125 L 36.605469 -36.148438 C 36.605469 -37.566406 35.691406 -37.703125 35.28125 -37.703125 Z M 35.28125 -37.703125 "/></g></g></g><path fill="#98feff" d="M 455.941406 374.792969 C 454.496094 374.792969 453.320312 375.964844 453.320312 377.40625 C 453.320312 378.847656 454.496094 380.015625 455.941406 380.015625 C 457.382812 380.015625 458.554688 378.847656 458.554688 377.40625 C 458.554688 375.964844 457.382812 374.792969 455.941406 374.792969 " fill-opacity="1" fill-rule="nonzero"/><path fill="#71fdff" d="M 435.980469 374.792969 C 434.53125 374.792969 433.355469 375.964844 433.355469 377.40625 C 433.355469 378.847656 434.53125 380.015625 435.980469 380.015625 C 437.421875 380.015625 438.59375 378.847656 438.59375 377.40625 C 438.59375 375.964844 437.421875 374.792969 435.980469 374.792969 " fill-opacity="1" fill-rule="nonzero"/><path fill="#51fdff" d="M 416.015625 374.792969 C 414.570312 374.792969 413.398438 375.964844 413.398438 377.40625 C 413.398438 378.847656 414.570312 380.015625 416.015625 380.015625 C 417.460938 380.015625 418.628906 378.847656 418.628906 377.40625 C 418.628906 375.964844 417.460938 374.792969 416.015625 374.792969 " fill-opacity="1" fill-rule="nonzero"/><path fill="#71fdff" d="M 396.050781 374.792969 C 394.609375 374.792969 393.4375 375.964844 393.4375 377.40625 C 393.4375 378.847656 394.609375 380.015625 396.050781 380.015625 C 397.496094 380.015625 398.667969 378.847656 398.667969 377.40625 C 398.667969 375.964844 397.496094 374.792969 396.050781 374.792969 " fill-opacity="1" fill-rule="nonzero"/><path fill="#98feff" d="M 376.089844 374.792969 C 374.644531 374.792969 373.476562 375.964844 373.476562 377.40625 C 373.476562 378.847656 374.644531 380.015625 376.089844 380.015625 C 377.535156 380.015625 378.707031 378.847656 378.707031 377.40625 C 378.707031 375.964844 377.535156 374.792969 376.089844 374.792969 " fill-opacity="1" fill-rule="nonzero"/><g clip-path="url(#d27581caa2)"><path fill="#71fdff" d="M 632.894531 359.074219 L 199.132812 359.074219 C 198.167969 359.074219 197.394531 359.851562 197.394531 360.808594 C 197.394531 361.765625 198.167969 362.539062 199.132812 362.539062 L 632.894531 362.539062 C 633.855469 362.539062 634.636719 361.765625 634.636719 360.808594 C 634.636719 359.851562 633.855469 359.074219 632.894531 359.074219 " fill-opacity="1" fill-rule="nonzero"/></g><path fill="#71fdff" d="M 539.253906 390.933594 L 292.769531 390.933594 C 291.8125 390.933594 291.035156 391.710938 291.035156 392.667969 C 291.035156 393.625 291.8125 394.398438 292.769531 394.398438 L 539.253906 394.398438 C 540.21875 394.398438 540.992188 393.625 540.992188 392.667969 C 540.992188 391.710938 540.21875 390.933594 539.253906 390.933594 " fill-opacity="1" fill-rule="nonzero"/><path fill="#71fdff" d="M 565.03125 375.378906 L 545.046875 375.378906 L 562.449219 393.445312 L 582.425781 393.445312 L 565.03125 375.378906 " fill-opacity="1" fill-rule="nonzero"/><path fill="#98feff" d="M 588.554688 375.378906 L 568.574219 375.378906 L 585.976562 393.445312 L 605.957031 393.445312 L 588.554688 375.378906 " fill-opacity="1" fill-rule="nonzero"/><path fill="#c1feff" d="M 612.082031 375.378906 L 592.105469 375.378906 L 609.503906 393.445312 L 629.484375 393.445312 L 612.082031 375.378906 " fill-opacity="1" fill-rule="nonzero"/><path fill="#71fdff" d="M 286.984375 375.378906 L 266.996094 375.378906 L 249.597656 393.445312 L 269.582031 393.445312 L 286.984375 375.378906 " fill-opacity="1" fill-rule="nonzero"/><path fill="#98feff" d="M 263.449219 375.378906 L 243.476562 375.378906 L 226.074219 393.445312 L 246.046875 393.445312 L 263.449219 375.378906 " fill-opacity="1" fill-rule="nonzero"/><path fill="#c1feff" d="M 239.925781 375.378906 L 219.945312 375.378906 L 202.546875 393.445312 L 222.523438 393.445312 L 239.925781 375.378906 " fill-opacity="1" fill-rule="nonzero"/><g clip-path="url(#60378d8a01)"><path fill="#33fcff" d="M 482.050781 371.992188 L 643.925781 371.992188 L 654.917969 382.960938 C 655.246094 383.28125 655.6875 383.46875 656.148438 383.46875 L 706.679688 383.46875 L 720.078125 396.832031 L 559.703125 396.832031 L 544.226562 381.394531 C 543.90625 381.070312 543.464844 380.886719 543 380.886719 L 490.988281 380.886719 Z M 644.644531 368.527344 L 477.847656 368.527344 C 477.144531 368.527344 476.507812 368.949219 476.242188 369.597656 C 475.980469 370.246094 476.125 370.988281 476.617188 371.484375 L 489.039062 383.84375 C 489.367188 384.167969 489.808594 384.347656 490.265625 384.347656 L 542.285156 384.347656 L 557.761719 399.789062 C 558.085938 400.117188 558.527344 400.296875 558.984375 400.296875 L 724.265625 400.296875 C 724.972656 400.296875 725.601562 399.875 725.871094 399.230469 C 726.140625 398.582031 725.988281 397.835938 725.496094 397.34375 L 708.625 380.507812 C 708.300781 380.1875 707.859375 380.003906 707.398438 380.003906 L 656.867188 380.003906 L 645.871094 369.035156 C 645.546875 368.707031 645.105469 368.527344 644.644531 368.527344 " fill-opacity="1" fill-rule="nonzero"/></g><g clip-path="url(#7f13b7c6d7)"><path fill="#33fcff" d="M 188.101562 371.992188 L 349.980469 371.992188 L 341.039062 380.886719 L 289.03125 380.886719 C 288.574219 380.886719 288.125 381.070312 287.800781 381.394531 L 272.324219 396.832031 L 111.949219 396.832031 L 125.34375 383.46875 L 175.882812 383.46875 C 176.347656 383.46875 176.785156 383.28125 177.109375 382.960938 Z M 354.179688 368.527344 L 187.378906 368.527344 C 186.921875 368.527344 186.484375 368.707031 186.15625 369.035156 L 175.164062 380.003906 L 124.628906 380.003906 C 124.167969 380.003906 123.730469 380.1875 123.402344 380.507812 L 106.53125 397.34375 C 106.039062 397.835938 105.886719 398.582031 106.152344 399.230469 C 106.421875 399.875 107.058594 400.296875 107.757812 400.296875 L 273.039062 400.296875 C 273.503906 400.296875 273.941406 400.117188 274.269531 399.789062 L 289.75 384.347656 L 341.757812 384.347656 C 342.222656 384.347656 342.660156 384.167969 342.984375 383.84375 L 355.40625 371.484375 C 355.902344 370.988281 356.050781 370.246094 355.78125 369.597656 C 355.515625 368.949219 354.882812 368.527344 354.179688 368.527344 " fill-opacity="1" fill-rule="nonzero"/></g></svg>